<svg width="40" height="40" viewBox="0 0 40 40" fill="none" xmlns="http://www.w3.org/2000/svg">
    <path d="M20 3.219l15 5.625v7.821c0 6.864-2.7 11.855-5.892 15.124a19.01 19.01 0 0 1-4.858 3.625c-1.522.78-3.043 1.251-4.25 1.251-1.207 0-2.728-.471-4.25-1.25a19.013 19.013 0 0 1-4.858-3.626C7.698 28.52 5 23.529 5 16.665V8.844l15-5.625zM8.333 11.154v5.511c0 5.915 2.3 10.09 4.942 12.794a15.684 15.684 0 0 0 3.995 2.988c1.292.662 2.27.885 2.73.885.46 0 1.438-.223 2.73-.883a15.684 15.684 0 0 0 3.995-2.99c2.64-2.704 4.942-6.877 4.942-12.794v-5.511L20 6.779 8.333 11.154z" fill="#FF2F2F"/>
    <path d="M26.178 15.488a1.666 1.666 0 0 1 0 2.357l-6.666 6.666a1.667 1.667 0 0 1-2.357 0l-3.333-3.333a1.667 1.667 0 1 1 2.356-2.357l2.155 2.155 5.489-5.488a1.666 1.666 0 0 1 2.356 0z" fill="#FF2F2F"/>
</svg>
