<svg width="35" height="35" viewBox="0 0 35 35" fill="none" xmlns="http://www.w3.org/2000/svg">
    <path d="M9.844 2.918a3.281 3.281 0 0 0-3.281 3.281v24.063c0 .604.49 1.093 1.093 1.093h3.282v-6.197a1.093 1.093 0 0 1 1.093-1.094H22.97a1.093 1.093 0 0 1 1.093 1.094v6.197h3.282a1.094 1.094 0 0 0 1.093-1.093V17.137a3.281 3.281 0 0 0-3.28-3.282h-1.095V6.2a3.281 3.281 0 0 0-3.28-3.281H9.843zm1.094 6.562a1.458 1.458 0 1 1 2.916 0 1.458 1.458 0 0 1-2.916 0zm1.458 8.75a1.458 1.458 0 1 1 0 2.917 1.458 1.458 0 0 1 0-2.916zm-1.459-3.645a1.458 1.458 0 1 1 2.917 0 1.458 1.458 0 0 1-2.916 0zM17.5 8.022a1.458 1.458 0 1 1 0 2.917 1.458 1.458 0 0 1 0-2.917zM16.042 19.69a1.458 1.458 0 1 1 2.916 0 1.458 1.458 0 0 1-2.916 0zm6.562-1.459a1.458 1.458 0 1 1 0 2.917 1.458 1.458 0 0 1 0-2.916zm-6.562-3.645a1.458 1.458 0 1 1 2.917 0 1.458 1.458 0 0 1-2.917 0z" fill="#FF2F2F"/>
    <path d="M21.875 31.358v-5.104h-3.281v5.104h3.281zM16.406 31.358v-5.104h-3.281v5.104h3.281z" fill="#FF2F2F"/>
</svg>
