<svg width="35" height="35" viewBox="0 0 35 35" fill="none" xmlns="http://www.w3.org/2000/svg">
    <path d="M7.11 10.938a3.828 3.828 0 1 1 0-7.656 3.828 3.828 0 0 1 0 7.655zm10.39 0a3.828 3.828 0 1 1 0-7.656 3.828 3.828 0 0 1 0 7.655zm10.39 0a3.828 3.828 0 1 1 0-7.656 3.828 3.828 0 0 1 0 7.655zM7.11 21.328a3.828 3.828 0 1 1 0-7.657 3.828 3.828 0 0 1 0 7.657zm10.39 0a3.828 3.828 0 1 1 0-7.657 3.828 3.828 0 0 1 0 7.657zm10.39 0a3.829 3.829 0 1 1 0-7.657 3.829 3.829 0 0 1 0 7.657zM7.11 31.718a3.829 3.829 0 1 1 0-7.656 3.829 3.829 0 0 1 0 7.657zm10.39 0a3.829 3.829 0 1 1 0-7.656 3.829 3.829 0 0 1 0 7.657zm10.39 0a3.829 3.829 0 1 1 .001-7.657 3.829 3.829 0 0 1 0 7.658z" fill="#FF2F2F"/>
</svg>
