<svg width="35" height="35" viewBox="0 0 35 35" fill="none" xmlns="http://www.w3.org/2000/svg">
    <path d="M32.813 33.906H3.28a2.187 2.187 0 0 1-2.187-2.187V2.187a1.094 1.094 0 1 1 2.187 0V31.72h29.532a1.094 1.094 0 1 1 0 2.187z" fill="#FF2F2F"/>
    <path d="M10.664 29.531H7.93a2.46 2.46 0 0 1-2.461-2.46V16.68a2.461 2.461 0 0 1 2.46-2.461h2.735a2.46 2.46 0 0 1 2.461 2.46V27.07a2.461 2.461 0 0 1-2.46 2.461zm9.844 0h-2.735a2.46 2.46 0 0 1-2.46-2.46V13.397a2.461 2.461 0 0 1 2.46-2.46h2.735a2.461 2.461 0 0 1 2.46 2.46V27.07a2.461 2.461 0 0 1-2.46 2.461zm9.819 0h-2.734a2.461 2.461 0 0 1-2.461-2.46V9.022a2.461 2.461 0 0 1 2.46-2.46h2.735a2.461 2.461 0 0 1 2.46 2.46V27.07a2.461 2.461 0 0 1-2.46 2.461z" fill="#FF2F2F"/>
</svg>
