<svg width="45" height="45" viewBox="0 0 45 45" fill="none" xmlns="http://www.w3.org/2000/svg">
    <path d="M39.347 19.404a1.406 1.406 0 0 0-.088-.27l-3.32-7.749c-.766-1.79-2.628-2.947-4.747-2.947H13.808c-2.117 0-3.98 1.157-4.746 2.947l-3.324 7.749a1.382 1.382 0 0 0-.113.553v15.47a1.406 1.406 0 0 0 1.406 1.406h2.813a1.406 1.406 0 0 0 1.406-1.407V33.75h22.5v1.406a1.406 1.406 0 0 0 1.406 1.407h2.813a1.406 1.406 0 0 0 1.406-1.407V19.688c0-.095-.01-.19-.028-.284zm-26.69 8.721a2.813 2.813 0 1 1 0-5.626 2.813 2.813 0 0 1 0 5.626zm19.687 0a2.813 2.813 0 1 1 0-5.626 2.813 2.813 0 0 1 0 5.626zm-23.18-9.844l2.48-5.787c.319-.744 1.188-1.244 2.165-1.244h17.383c.975 0 1.845.5 2.163 1.244l2.482 5.787H9.163z" fill="#FF2F2F"/>
</svg>
