<svg width="35" height="35" viewBox="0 0 35 35" fill="none" xmlns="http://www.w3.org/2000/svg">
<path d="M17.4999 0C7.83495 0 0 7.83495 0 17.4999C0 27.1648 7.83495 35.0001 17.4999 35.0001C27.1648 35.0001 35.0001 27.1648 35.0001 17.4999C34.9892 7.83943 27.1607 0.0108947 17.4999 0V0ZM17.4999 3.50011C23.2658 3.48056 28.4466 7.0188 30.5268 12.396C26.4333 10.5535 21.9889 9.62073 17.4999 9.66142C13.0112 9.62073 8.56682 10.5535 4.47327 12.396C6.55353 7.0188 11.7343 3.48056 17.4999 3.50011ZM14.6179 31.2001C8.52548 29.8991 4.01921 24.7385 3.55138 18.5262C8.77734 18.5262 14.6179 25.4845 14.6179 31.2001ZM17.4999 20.1249C16.0502 20.1249 14.8749 18.9499 14.8749 17.4999C14.8749 16.0502 16.0502 14.8749 17.4999 14.8749C18.9499 14.8749 20.1249 16.0502 20.1249 17.4999C20.1249 18.9499 18.9499 20.1249 17.4999 20.1249ZM20.3822 31.2001C20.3822 25.4845 26.2228 18.5262 31.4491 18.5262C30.9809 24.7385 26.4746 29.8991 20.3822 31.2001Z" fill="#FF2F2F"/>
</svg>
