<svg width="60" height="60" viewBox="0 0 60 60" fill="none" xmlns="http://www.w3.org/2000/svg">
    <path fill-rule="evenodd" clip-rule="evenodd" d="M48.123 8.125v10a1.876 1.876 0 0 0 3.75 0v-10a1.876 1.876 0 0 0-3.75 0z" fill="#D9D9D9"/>
    <path fill-rule="evenodd" clip-rule="evenodd" d="M44.995 15h10a1.876 1.876 0 0 0 0-3.75h-10a1.876 1.876 0 0 0 0 3.75z" fill="#D9D9D9"/>
    <path fill-rule="evenodd" clip-rule="evenodd" d="M34.998 7.5H22.793a4.376 4.376 0 0 0-3.912 2.418l-2.368 4.737a.63.63 0 0 1-.56.345H9.998a6.874 6.874 0 0 0-6.875 6.875v25c0 1.822.725 3.572 2.013 4.862a6.887 6.887 0 0 0 4.862 2.013h40a6.887 6.887 0 0 0 4.863-2.013 6.887 6.887 0 0 0 2.012-4.862v-21.25a1.876 1.876 0 0 0-3.75 0v21.25c0 .83-.33 1.623-.915 2.21a3.13 3.13 0 0 1-2.21.915h-40a3.13 3.13 0 0 1-2.21-.915 3.13 3.13 0 0 1-.915-2.21v-25c0-1.725 1.4-3.125 3.125-3.125h5.955a4.376 4.376 0 0 0 3.913-2.418l2.367-4.737a.63.63 0 0 1 .56-.345h12.205a1.876 1.876 0 0 0 0-3.75z" fill="#D9D9D9"/>
    <path fill-rule="evenodd" clip-rule="evenodd" d="M29.998 21.25c-6.555 0-11.875 5.32-11.875 11.875S23.443 45 29.998 45s11.875-5.32 11.875-11.875-5.32-11.875-11.875-11.875zm0 3.75a8.128 8.128 0 0 1 8.125 8.125 8.128 8.128 0 0 1-8.125 8.125 8.128 8.128 0 0 1-8.125-8.125A8.128 8.128 0 0 1 29.998 25z" fill="#D9D9D9"/>
</svg>
