<svg width="18" height="18" viewBox="0 0 18 18" fill="none" xmlns="http://www.w3.org/2000/svg">
    <g clip-path="url(#a)" fill="#B7B9BF">
        <path d="M7.652 14.191h8.996c.747 0 1.352.606 1.352 1.352v.993c0 .809-.656 1.465-1.465 1.465h-8.77A1.465 1.465 0 0 1 6.3 16.536v-.993c0-.746.606-1.352 1.352-1.352zM.245 14.379l8.212-8.212-1.586-1.584a.669.669 0 0 1-.911-.028.669.669 0 0 1 0-.942L9.38.196a.66.66 0 0 1 .939 0 .66.66 0 0 1 0 .94l.028-.029 4.343 4.34-.029.03a.66.66 0 0 1 .94 0 .66.66 0 0 1 0 .94l-3.417 3.42a.669.669 0 0 1-.942 0 .669.669 0 0 1 0-.942l-.029.028L9.627 7.34l-8.21 8.209a.83.83 0 0 1-1.172 0 .827.827 0 0 1 0-1.17z"/>
    </g>
    <defs>
        <clipPath id="a">
            <path fill="#fff" transform="matrix(-1 0 0 1 18 0)" d="M0 0h18v18H0z"/>
        </clipPath>
    </defs>
</svg>
