<svg width="24" height="24" viewBox="0 0 24 24" fill="none" xmlns="http://www.w3.org/2000/svg">
    <circle cx="12" cy="12" r="12" fill="#FF2F2F"/>
    <path d="M15.248 18.683h-3.613a7.433 7.433 0 0 1-2.79-.494 5.891 5.891 0 0 1-2.082-1.382 6.003 6.003 0 0 1-1.308-2.135 8.04 8.04 0 0 1-.454-2.763c-.01-.949.149-1.892.47-2.787.29-.808.743-1.55 1.332-2.182a5.983 5.983 0 0 1 2.09-1.429 7.164 7.164 0 0 1 2.774-.51 7.547 7.547 0 0 1 2.536.416c.75.26 1.438.672 2.018 1.209a5.441 5.441 0 0 1 1.3 1.947c.332.85.495 1.757.478 2.669a6.752 6.752 0 0 1-.2 1.71c-.117.472-.32.919-.598 1.32-.25.364-.589.66-.986.86-.398.2-.84.299-1.286.286a2.16 2.16 0 0 1-1.388-.416 1.574 1.574 0 0 1-.582-1.115h-.088a2.303 2.303 0 0 1-.686 1.099c-.36.284-.815.426-1.275.4a2.386 2.386 0 0 1-1.898-.871 3.177 3.177 0 0 1-.566-1.083 4.957 4.957 0 0 1-.176-1.515 5.043 5.043 0 0 1 .207-1.508 3.17 3.17 0 0 1 .567-1.09 2.387 2.387 0 0 1 1.897-.872c.422-.014.833.126 1.157.393.287.226.507.524.638.863h.08V8.58h1.642v4.616a.994.994 0 0 0 .2.691.801.801 0 0 0 .582.212c.214-.004.422-.068.6-.184.179-.117.319-.282.404-.475a4.126 4.126 0 0 0 .367-1.963v-.55a4.854 4.854 0 0 0-.367-1.93 4.098 4.098 0 0 0-1.036-1.453 4.65 4.65 0 0 0-1.595-.918 5.84 5.84 0 0 0-1.978-.322 5.604 5.604 0 0 0-2.153.393 4.932 4.932 0 0 0-1.619 1.09 4.7 4.7 0 0 0-1.052 1.65 5.782 5.782 0 0 0-.367 2.095v.73c-.009.707.115 1.41.367 2.072.228.607.585 1.16 1.047 1.62.462.46 1.018.818 1.632 1.05a5.87 5.87 0 0 0 2.145.368h3.62l-.007 1.311zM11.5 14.02a1.303 1.303 0 0 0 1.21-.73c.064-.143.097-.298.097-.455v-1.962a.953.953 0 0 0-.366-.785c-.266-.212-.6-.32-.941-.306a1.383 1.383 0 0 0-1.077.423 1.554 1.554 0 0 0-.375 1.1v1.177c-.024.402.11.799.375 1.107a1.372 1.372 0 0 0 1.077.431z" fill="#fff"/>
</svg>
