<svg width="24" height="24" viewBox="0 0 24 24" fill="none" xmlns="http://www.w3.org/2000/svg">
    <path fill-rule="evenodd" clip-rule="evenodd" d="M12 24c6.627 0 12-5.373 12-12S18.627 0 12 0 0 5.373 0 12s5.373 12 12 12zM8.443 6.007c.215.009.453.019.68.521.154.344.415.985.623 1.496.152.375.276.679.308.743.076.15.126.327.025.528l-.042.085a1.725 1.725 0 0 1-.26.418l-.156.187a5.072 5.072 0 0 1-.297.341c-.152.15-.309.314-.133.616.177.301.783 1.289 1.681 2.088a7.81 7.81 0 0 0 2.23 1.407c.083.036.15.065.2.09.303.15.479.126.655-.076.177-.2.755-.88.957-1.182.201-.302.403-.252.68-.15.277.1 1.762.83 2.065.98.058.03.113.056.165.08.21.102.353.17.414.272.075.126.075.73-.177 1.434-.251.704-1.485 1.384-2.039 1.434a5.98 5.98 0 0 0-.161.017c-.512.06-1.159.136-3.465-.772-2.84-1.117-4.711-3.887-5.098-4.458-.031-.047-.053-.08-.064-.094l-.004-.005C7.066 11.788 6 10.365 6 8.893c0-1.39.684-2.117.999-2.452l.059-.064A1.11 1.11 0 0 1 7.863 6h.033c.19 0 .38 0 .547.007z" fill="#fff"/>
</svg>
