<svg xmlns="http://www.w3.org/2000/svg"><defs>
        <clipPath id="a">
            <path transform="translate(0 .852)" d="M0 0h23v19.303H0z"/>
        </clipPath>
    </defs><symbol id="arr-left" viewBox="0 0 19 14">
    <path d="M8 1L2 7m0 0l6 6M2 7h16" stroke-width="2" stroke-linecap="round"/>
</symbol><symbol id="arr-right" viewBox="0 0 19 14">
    <path d="M11 1l6 6m0 0l-6 6m6-6H1" stroke-width="2" stroke-linecap="round"/>
</symbol><symbol id="bookmark" viewBox="0 0 28 28">
    <path d="M14.354 10.146a.5.5 0 0 1 .146.354V12H16a.5.5 0 1 1 0 1h-1.5v1.5a.5.5 0 0 1-1 0V13H12a.5.5 0 1 1 0-1h1.5v-1.5a.5.5 0 0 1 .854-.354z"/>
    <path fill-rule="evenodd" clip-rule="evenodd" d="M14 28c7.732 0 14-6.268 14-14S21.732 0 14 0 0 6.268 0 14s6.268 14 14 14zM8 8v13.5a.5.5 0 0 0 .74.439l5.26-2.87 5.26 2.87a.5.5 0 0 0 .74-.44V8a2 2 0 0 0-2-2h-8a2 2 0 0 0-2 2z"/>
</symbol><symbol id="bus" viewBox="0 0 30 12">
    <path d="M29.88 6.842l-1.046-4.545A1.84 1.84 0 0 0 27.032.863H.91a.91.91 0 0 0-.909.91v7.514c0 .502.408.91.91.91h5.436a1.85 1.85 0 0 0 3.217 0h11.344c.317.56.92.939 1.608.939.69 0 1.29-.38 1.609-.94h4.967A.91.91 0 0 0 30 9.288V7.89c0-.352-.04-.704-.12-1.047zM7.956 10.257a.97.97 0 0 1 0-1.94.97.97 0 0 1 0 1.94zm0-2.818a1.85 1.85 0 0 0-1.849 1.848v.03H.91a.03.03 0 0 1-.03-.03V1.772a.03.03 0 0 1 .03-.03h26.123c.455 0 .843.31.945.752l.057.248H5.136a.44.44 0 0 0 0 .879h1.44v1.94H2.788a.03.03 0 0 1-.03-.031V3.651a.03.03 0 0 1 .03-.03h2.47a.44.44 0 0 0 0-.879h-2.47a.91.91 0 0 0-.91.91V5.53c0 .501.409.91.91.91h8.485v2.878h-1.47v-.03a1.85 1.85 0 0 0-1.848-1.849zm15.53-3.818v1.94h-3.349V3.62h3.349zm.879 0h1v5.697h-1V3.62zm1.878 0h1v5.697h-1V3.62zm-14.97 0v1.94H7.456V3.62h3.818zm.88 0h1v5.697h-1V3.62zm1.878 0h1v5.697h-1V3.62zm1.88 5.697V3.62h3.348v1.94h-3.91c-.242 0 .44.347 0 .439 0 .242-.242.44 0 .44h8.137v1.275a1.85 1.85 0 0 0-2.818 1.573v.03H15.91zm6.605.94a.97.97 0 0 1 0-1.94.97.97 0 0 1 0 1.94zm6.606-.97a.03.03 0 0 1-.03.03h-.97V3.62h.116l.787 3.418c.065.279.097.565.097.85v1.399z"/>
</symbol><symbol id="calendar" viewBox="0 0 15 16">
    <path d="M11.333 2.5H3.667A2.667 2.667 0 0 0 1 5.167v6.666A2.667 2.667 0 0 0 3.667 14.5h7.666A2.667 2.667 0 0 0 14 11.833V5.167A2.667 2.667 0 0 0 11.333 2.5zM5 1.5v2M10 1.5v2M1 6.5h13" stroke-width="2" stroke-linecap="round" stroke-linejoin="round"/>
</symbol><symbol id="car" viewBox="0 0 26 15">
    <path d="M22.65 5.976l-1.38-.23a1.2 1.2 0 0 1-.847-.59l-1.906-3.337A3.617 3.617 0 0 0 15.383 0H8.68a3.617 3.617 0 0 0-3.134 1.819L3.601 5.222a1.21 1.21 0 0 1-.754.57l-1.329.333a2 2 0 0 0-1.42 1.334c-.004.01-.005.023-.008.034A1.997 1.997 0 0 0 0 8.07v2.758a2.008 2.008 0 0 0 2.005 2.005h1.478a2.801 2.801 0 0 0 5.065 0h8.57a2.8 2.8 0 0 0 5.066 0h1.477a2.007 2.007 0 0 0 2.006-2.005V9.536a3.599 3.599 0 0 0-3.016-3.56zm1.771 2.045c.159.247.277.518.352.802h-.31c-.318 0-.623-.126-.849-.35a1.226 1.226 0 0 1-.285-.452h1.092zm-23.615 0h.685l-.2.802H.802V8.07c0-.017.004-.033.004-.05zm5.21 5.614a2.005 2.005 0 1 1 0-4.01 2.005 2.005 0 0 1 0 4.01zm13.635 0a2.005 2.005 0 1 1 0-4.01 2.005 2.005 0 0 1 0 4.01zm4.01-1.604h-1.235a2.806 2.806 0 0 0-4.904-2.252 2.808 2.808 0 0 0-.646 2.252H8.79a2.807 2.807 0 1 0-5.55 0H2.004a1.203 1.203 0 0 1-1.203-1.203V9.625h.802a.401.401 0 0 0 .39-.304l.4-1.604a.401.401 0 0 0-.389-.498H1.16c.153-.154.344-.263.554-.316l1.33-.332a2.016 2.016 0 0 0 1.254-.95l1.945-3.404A2.814 2.814 0 0 1 8.68.802h6.703a2.814 2.814 0 0 1 2.437 1.415l1.907 3.336a1.997 1.997 0 0 0 1.411.984l1.38.23c.405.067.789.221 1.127.452h-.786a.401.401 0 0 0-.4.4 2.004 2.004 0 0 0 2.005 2.006h.4v1.203a1.204 1.204 0 0 1-1.203 1.203z"/>
    <path d="M18.232 3.804a.401.401 0 0 0-.688.413l.598.997h-4.906V2.005h2.3c.207 0 .411.055.592.157.18.103 1.235 1.754 1.342 1.931l.254.425a.401.401 0 0 0 .688-.413l-1.157-1.929a2.014 2.014 0 0 0-1.72-.973h-2.7a.401.401 0 0 0-.401.401v4.01a.4.4 0 0 0 .4.402h6.016a.401.401 0 0 0 .344-.608l-.962-1.604zM11.23 1.203H8.527a2.014 2.014 0 0 0-1.72.973L4.87 5.408a.401.401 0 0 0 .343.608h6.016a.401.401 0 0 0 .401-.401v-4.01a.401.401 0 0 0-.4-.402zm-.402 4.01H5.922L7.496 2.59a1.21 1.21 0 0 1 1.032-.585h2.3v3.209zM13.637 6.418h-.802a.4.4 0 0 0 0 .802h.802a.401.401 0 1 0 0-.802zM6.016 6.418h-.802a.401.401 0 1 0 0 .802h.802a.401.401 0 1 0 0-.802zM19.652 10.426a1.203 1.203 0 1 0 0 2.406 1.203 1.203 0 0 0 0-2.406zm0 1.604a.402.402 0 1 1 0-.803.402.402 0 0 1 0 .803zM6.016 10.426a1.203 1.203 0 1 0 0 2.406 1.203 1.203 0 0 0 0-2.406zm0 1.604a.401.401 0 1 1 0-.803.401.401 0 0 1 0 .803z"/>
</symbol><symbol id="chevron-left" viewBox="0 0 8.4142103 13.999975">
    <path d="M6.707 13.707a1 1 0 0 0 1.414-1.414zM1.414 7l-.707-.707L0 7l.707.707zm6.707-5.293A1 1 0 1 0 6.707.293zm0 10.586l-6-6L.707 7.707l6 6zm-6-4.586l6-6L6.707.293l-6 6z"/>
</symbol><symbol id="chevron-right" viewBox="0 0 8.4142103 13.999975">
    <path d="M1.707.293A1 1 0 0 0 .293 1.707zM7 7l.707.707L8.414 7l-.707-.707zM.293 12.293a1 1 0 1 0 1.414 1.414zm0-10.586l6 6 1.414-1.414-6-6zm6 4.586l-6 6 1.414 1.414 6-6z"/>
</symbol><symbol id="chevron-up" viewBox="0 0 14 9">
    <path d="M.293 7.293a1 1 0 0 0 1.414 1.414L.293 7.293zM7 2l.707-.707L7 .586l-.707.707L7 2zm5.293 6.707a1 1 0 1 0 1.414-1.414l-1.414 1.414zm-10.586 0l6-6-1.414-1.414-6 6 1.414 1.414zm4.586-6l6 6 1.414-1.414-6-6-1.414 1.414z"/>
</symbol><symbol id="chevron" viewBox="0 0 8.75 5.3749585">
    <path d="M1 1l3.375 3.375L7.75 1" stroke-width="2" stroke-linecap="round" stroke-linejoin="round"/>
</symbol><symbol id="crossover" viewBox="0 0 30 14">
    <path d="M1.008 4.638l2.067-3.31A1.411 1.411 0 0 1 4.27.669h10.932c.261-.001.518.072.74.21l5.785 3.559 5.601.862a.93.93 0 0 1 .797.928v2.41h.469a.469.469 0 0 1 .468.468v1.407c0 .124-.05.243-.135.332l-.938.938a.484.484 0 0 1-.333.136h-2.039a2.808 2.808 0 0 1-5.297 0H8.742a2.813 2.813 0 0 1-5.334-.098l-2.175-.872a.47.47 0 0 1-.295-.436V4.887c-.001-.088.023-.174.07-.249zM4.27 1.605a.469.469 0 0 0-.398.22L2.25 4.419h2.906c.014 0 .028.01.042.01l1.52-2.823H4.27zm7.449 0H7.78L6.267 4.418h5.452V1.605zm3.731.07a.463.463 0 0 0-.248-.07h-2.546v2.813h7.252L15.45 1.676zM27.188 7.7h-.647l.468.938h.178v-.938zm-4.22 5.156a1.875 1.875 0 1 0 0-3.75 1.875 1.875 0 0 0 0 3.75zm-16.874 0a1.875 1.875 0 1 0 0-3.75 1.875 1.875 0 0 0 0 3.75zM1.875 7.7h.178l.469-.937h-.647v.937zm0-1.875h1.406a.469.469 0 0 1 .417.68l-.937 1.875a.463.463 0 0 1-.417.258h-.469v1.556l1.416.567a2.812 2.812 0 0 1 5.615.22h11.25a2.813 2.813 0 0 1 5.625 0h1.683l.661-.66v-.746h-1.406a.458.458 0 0 1-.417-.258l-.938-1.875a.469.469 0 0 1 .417-.68h1.407v-.534l-5.663-.872H1.875v.47z"/>
    <path d="M6.094 5.824h.937a.469.469 0 1 1 0 .938h-.937a.469.469 0 0 1 0-.938zM14.063 6.762h-.938a.47.47 0 0 1 0-.938h.938a.469.469 0 0 1 0 .938zM9.844 8.637h9.375a.469.469 0 0 1 0 .937H9.844a.469.469 0 0 1 0-.937z"/>
    <circle cx="6.102" cy="11" r=".5"/>
    <circle cx="23" cy="11" r=".5"/>
</symbol><symbol id="daihatsu" viewBox="0 0 26 11">
    <path fill-rule="evenodd" clip-rule="evenodd" d="M1 1.092l1.215-.082 6.308 6.308S24.306 5.884 24.361 4.19c.054-2.007-17.053-2.444-17.053-2.444l4.45 4.697-2.921.3-5.83-5.734S22.791.668 24.921 4.014C26.436 6.389 5.75 9.953 5.75 9.953l1.57-2.335L1 1.092z"/>
    <path d="M1 1.092l1.215-.082 6.308 6.308m.014 0S24.32 5.884 24.375 4.19C24.428 2.184 7.32 1.747 7.32 1.747m-.013 0l4.45 4.697-2.921.3-5.83-5.734m0 0S22.791.668 24.921 4.014C26.436 6.389 5.75 9.953 5.75 9.953m0 0l1.57-2.335-6.307-6.526" stroke-width=".133" stroke-miterlimit="2.613"/>
    <path fill-rule="evenodd" clip-rule="evenodd" d="M1 1.092l1.215-.082 6.308 6.308S24.306 5.884 24.361 4.19c.054-2.007-17.053-2.444-17.053-2.444l4.45 4.697-2.921.3-5.83-5.734S22.791.668 24.921 4.014C26.436 6.389 5.75 9.953 5.75 9.953l1.57-2.335L1 1.092z"/>
    <path d="M1 1.092l1.215-.082 6.308 6.308m.014 0S24.32 5.884 24.375 4.19C24.428 2.184 7.32 1.747 7.32 1.747m-.013 0l4.45 4.697-2.921.3-5.83-5.734m0 0S22.791.668 24.921 4.014C26.436 6.389 5.75 9.953 5.75 9.953m0 0l1.57-2.335-6.307-6.526" stroke-width=".133" stroke-miterlimit="2.613"/>
</symbol><symbol id="email" viewBox="0 0 19 20">
    <path d="M14.977 19.998h-5.28a10.862 10.862 0 0 1-4.079-.722 8.61 8.61 0 0 1-3.041-2.02 8.774 8.774 0 0 1-1.912-3.12 11.75 11.75 0 0 1-.664-4.038 11.684 11.684 0 0 1 .687-4.073 9.277 9.277 0 0 1 1.947-3.19A8.745 8.745 0 0 1 5.688.747 10.47 10.47 0 0 1 9.744.001a11.03 11.03 0 0 1 3.707.608 8.405 8.405 0 0 1 2.948 1.767 7.952 7.952 0 0 1 1.9 2.846 10.18 10.18 0 0 1 .7 3.9 9.863 9.863 0 0 1-.292 2.501 5.864 5.864 0 0 1-.874 1.928 3.85 3.85 0 0 1-1.442 1.258 3.92 3.92 0 0 1-1.88.417 3.158 3.158 0 0 1-2.028-.608 2.302 2.302 0 0 1-.598-.728 2.266 2.266 0 0 1-.253-.901h-.128a3.366 3.366 0 0 1-1.002 1.606 2.768 2.768 0 0 1-1.865.585 3.65 3.65 0 0 1-1.538-.321 3.49 3.49 0 0 1-1.236-.953 4.644 4.644 0 0 1-.827-1.583 7.245 7.245 0 0 1-.257-2.214 7.371 7.371 0 0 1 .303-2.203c.169-.58.45-1.12.828-1.595a3.489 3.489 0 0 1 1.235-.952 3.65 3.65 0 0 1 1.539-.321 2.531 2.531 0 0 1 1.69.574c.42.33.742.766.932 1.262h.117V5.233h2.4v6.746c-.032.36.072.72.292 1.01a1.168 1.168 0 0 0 .85.31 1.65 1.65 0 0 0 .879-.27c.26-.171.465-.412.59-.694.411-.9.595-1.884.536-2.869v-.803a7.095 7.095 0 0 0-.536-2.822A5.99 5.99 0 0 0 14.92 3.72a6.796 6.796 0 0 0-2.33-1.343 8.536 8.536 0 0 0-2.891-.47 8.19 8.19 0 0 0-3.147.574c-.89.37-1.694.912-2.366 1.594a6.87 6.87 0 0 0-1.538 2.41 8.45 8.45 0 0 0-.537 3.063v1.067a8.247 8.247 0 0 0 .537 3.029 6.63 6.63 0 0 0 1.53 2.366 6.758 6.758 0 0 0 2.386 1.534 8.582 8.582 0 0 0 3.135.54h5.291l-.012 1.916zM9.5 13.184a1.902 1.902 0 0 0 1.363-.517 1.642 1.642 0 0 0 .548-1.216V8.583a1.392 1.392 0 0 0-.536-1.147A2.073 2.073 0 0 0 9.5 6.988a2.022 2.022 0 0 0-1.574.62 2.272 2.272 0 0 0-.548 1.606v1.721c-.035.588.161 1.168.548 1.618a2.034 2.034 0 0 0 1.573.631z"/>
</symbol><symbol id="facebook" viewBox="0 0 32 32">
    <path d="M7.747 3A4.737 4.737 0 0 0 3 7.747v16.506A4.737 4.737 0 0 0 7.747 29h8.946V18.836h-2.688v-3.66h2.688V12.05c0-2.457 1.588-4.712 5.246-4.712 1.482 0 2.577.142 2.577.142l-.086 3.418s-1.117-.011-2.336-.011c-1.32 0-1.531.608-1.531 1.617v2.672h3.972l-.174 3.66h-3.798V29h3.69A4.737 4.737 0 0 0 29 24.253V7.747A4.737 4.737 0 0 0 24.253 3H7.747z"/>
</symbol><symbol id="grid" viewBox="0 0 26 26">
    <path d="M6.906.813H1.281a.469.469 0 0 0-.468.468v5.625c0 .26.21.469.468.469h5.625c.26 0 .469-.21.469-.469V1.281a.469.469 0 0 0-.469-.468zM15.813.813h-5.626a.469.469 0 0 0-.468.468v5.625c0 .26.21.469.469.469h5.624c.26 0 .47-.21.47-.469V1.281a.469.469 0 0 0-.47-.468zM24.719.813h-5.625a.469.469 0 0 0-.469.468v5.625c0 .26.21.469.469.469h5.625c.259 0 .468-.21.468-.469V1.281a.469.469 0 0 0-.468-.468zM6.906 9.719H1.281a.469.469 0 0 0-.468.469v5.624c0 .26.21.47.468.47h5.625c.26 0 .469-.21.469-.47v-5.624a.469.469 0 0 0-.469-.47zM15.813 9.719h-5.626a.469.469 0 0 0-.468.469v5.624c0 .26.21.47.469.47h5.624c.26 0 .47-.21.47-.47v-5.624a.469.469 0 0 0-.47-.47zM24.719 9.719h-5.625a.469.469 0 0 0-.469.469v5.624c0 .26.21.47.469.47h5.625c.259 0 .468-.21.468-.47v-5.624a.469.469 0 0 0-.468-.47zM6.906 18.625H1.281a.469.469 0 0 0-.468.469v5.625c0 .259.21.468.468.468h5.625c.26 0 .469-.21.469-.468v-5.625a.469.469 0 0 0-.469-.469zM15.813 18.625h-5.626a.469.469 0 0 0-.468.469v5.625c0 .259.21.468.469.468h5.624c.26 0 .47-.21.47-.468v-5.625a.469.469 0 0 0-.47-.469zM24.719 18.625h-5.625a.469.469 0 0 0-.469.469v5.625c0 .259.21.468.469.468h5.625c.259 0 .468-.21.468-.468v-5.625a.469.469 0 0 0-.468-.469z"/>
</symbol><symbol id="hatchback" viewBox="0 0 28 12">
    <path d="M26.892 10.627h-2.14a2.648 2.648 0 0 1-4.595 0H7.891a2.648 2.648 0 0 1-4.601-.011.438.438 0 0 1-.144-.053L.928 9.233a.444.444 0 0 1-.215-.38V4.858a.44.44 0 0 1 .047-.192c.006-.012.009-.025.016-.037l1.206-2.01-.335-.669a.444.444 0 0 1 .324-.636l2.282-.38 1.083-.18a24.64 24.64 0 0 1 15.522 2.542l1.308.698 1.996.444a4.595 4.595 0 0 1 3.126 2.44c.031.062.048.13.048.198v3.106a.444.444 0 0 1-.444.444zm-6.062-.621a1.77 1.77 0 1 0 3.242-1.427 1.77 1.77 0 0 0-3.242 1.427zm-16.861 0A1.77 1.77 0 1 0 7.21 8.579a1.77 1.77 0 0 0-3.241 1.427zM1.6 6.19h1.11l.665-.888H1.6v.888zm8.94-4.837a23.386 23.386 0 0 0-5.059.278l-.233.04 2.304 2.3h3.362l-.375-2.618zM7.367 4.86a.443.443 0 0 1-.313-.13L4.174 1.847l-1.465.245.178.35a.444.444 0 0 1-.017.426l-.93 1.547h2.322a.444.444 0 0 1 .355.71L3.287 6.9a.443.443 0 0 1-.356.177H1.6v1.524l1.331.8-.002-.105a2.662 2.662 0 1 1 5.325 0c-.001.133-.013.265-.034.397-.002.015 0 .031-.004.047h3.522l-.697-4.881H7.368zm4.077-3.444l.365 2.556h8.424a23.687 23.687 0 0 0-8.79-2.556zm15.003 6.55h-.443a.444.444 0 0 1 0-.887h.378a3.704 3.704 0 0 0-2.412-1.773l-2.008-.446H11.939l.695 4.88h7.196c0-.015 0-.03-.003-.046a2.637 2.637 0 0 1-.034-.397 2.662 2.662 0 0 1 5.324 0c0 .133-.012.265-.033.397-.003.015 0 .031-.004.046h1.369V7.965z"/>
    <path d="M15.797 6.19a.444.444 0 0 0-.444-.444h-.887a.444.444 0 1 0 0 .887h.887a.444.444 0 0 0 .444-.443z"/>
    <circle cx="5.6" cy="9.257" r=".429"/>
    <circle cx="22.483" cy="9.257" r=".429"/>
</symbol><symbol id="honda" viewBox="0 0 21 18">
    <path fill-rule="evenodd" clip-rule="evenodd" d="M.213 4.525S.065 6.4.203 8.5c.306 4.427 1.065 6.616 1.992 7.276 1.922 1.361 5.501 1.184 8.321 1.184v.502c-4.289-.147-7.503.01-8.952-1.725C.686 14.69.174 11.2.074 8.43c-.078-2.278.1-3.914.1-3.914s.01 0 .03.01h.009z"/>
    <path fill-rule="evenodd" clip-rule="evenodd" d="M2.309 2.61c-.07.059-.128.128-.188.206-.808 1.085-.72 2.712-.73 3.994-.019 1.636.06 3.303.277 4.92.118.877.217 1.991.64 2.83l-.413.157S.859 12.696.859 6.859c0-4.17 1.45-4.25 1.45-4.25z"/>
    <path fill-rule="evenodd" clip-rule="evenodd" d="M1.697 2.683C.948 3.738.86 5.07.86 7.2c0 1.144.158 4.87.77 6.823.02.079.226.444.295.374.07-.069.03-.207-.02-.315-.049-.108-.71-3.056-.71-6.862 0-.345-.029-2.544.218-3.175.285-.72.502-.947.818-1.341.434-.532 1.686-.818 1.686-.818s.059-.01.079 0c.059.02.079.049.079.049s.118-.187.522-.335c.464-.168.888-.207.888-.207l.483.276.02-.02c.118-.05 2.01-.256 4.535-.217v-.345c-4.782 0-7.79.128-8.825 1.597zM20.811 4.525s-.246-2.386-2.09-3.017c-2.485-.848-5.393-.76-8.213-.76V.454c.907 0 6.26.01 8.39.907 1.903.799 1.962 3.155 1.962 3.155l-.049.01z"/>
    <path fill-rule="evenodd" clip-rule="evenodd" d="M20.811 4.525s.148 1.874.01 3.974c-.306 4.427-1.065 6.616-1.992 7.276-1.922 1.361-5.501 1.184-8.321 1.184v.502c4.289-.147 7.503.01 8.952-1.725.878-1.045 1.39-4.536 1.49-7.306.078-2.278-.1-3.914-.1-3.914s-.01 0-.029.01h-.01z"/>
    <path fill-rule="evenodd" clip-rule="evenodd" d="M20.16 6.875c0 5.837-1.035 7.858-1.035 7.858l-.414-.158c.424-.838.523-1.942.64-2.83.228-1.626.297-3.283.277-4.92-.01-1.281.079-2.908-.73-3.992a1.267 1.267 0 0 0-.187-.207c.01-.01 1.45.069 1.45 4.25z"/>
    <path fill-rule="evenodd" clip-rule="evenodd" d="M19.332 2.683c.75 1.055.838 2.386.838 4.516 0 1.144-.158 4.87-.769 6.823-.03.079-.227.444-.296.374-.069-.069-.03-.207.02-.315.05-.108.71-3.056.71-6.862 0-.345.03-2.544-.217-3.175-.286-.72-.503-.947-.818-1.341-.434-.532-1.686-.818-1.686-.818s-.06-.01-.08 0c-.058.02-.078.049-.078.049s-.118-.187-.523-.335a4.018 4.018 0 0 0-.887-.207l-.483.276-.02-.02c-.118-.05-2.011-.256-4.535-.217v-.345c4.782 0 7.789.128 8.824 1.597z"/>
    <path fill-rule="evenodd" clip-rule="evenodd" d="M19.354 11.742c-.158 1.124-.256 2.584-1.065 3.451-.286.306-2.475 1.588-2.376.602.404-3.076.621-6.153.818-9.249.06-1.301.128-2.603.148-3.894.02-.217-.118-.76.227-.77.65.188 1.37.375 1.794.957.809 1.085.72 2.712.73 3.993.03 1.627-.05 3.284-.276 4.91zm-4.299-9.899c-.444 1.627-.956 3.777-1.42 5.403-.364 1.302-.788 2.988-2.376 3.155a6.1 6.1 0 0 1-.75.05c-.255 0-.502-.02-.748-.05-1.588-.167-2.012-1.843-2.377-3.155-.463-1.626-.976-3.786-1.42-5.403-.078-.276.04-.217.612-.295C7.61 1.41 9.159 1.39 10.51 1.4c1.35-.01 2.899.01 3.934.148.572.078.69.02.611.295zM13.36 16.396c-.128.02-.562.02-1.035.03-.601.01-1.203.02-1.804.02-.602 0-1.203 0-1.805-.02-.473-.01-.907-.01-1.035-.03-.128-.02-.256-.03-.227-.177.04-.148.622-2.012.622-2.012.384-1.242.404-1.32 1.38-1.508.325-.06.69-.109 1.065-.109.374 0 .74.04 1.065.109.976.187 1.005.276 1.38 1.508 0 0 .582 1.864.621 2.012.03.148-.098.157-.227.177zM2.74 15.193c-.808-.867-.917-2.336-1.064-3.45-.227-1.627-.296-3.284-.276-4.92.01-1.282-.08-2.91.73-3.994.433-.572 1.143-.759 1.794-.956.345.01.207.552.226.769.02 1.301.09 2.603.148 3.895.188 3.095.414 6.182.819 9.248.098.996-2.1-.286-2.377-.592zm18.221-9.76C20.892 4.22 20.715 2.897 19.808 2c-.819-.818-2.002-1.045-3.106-1.193C14.632.532 12.59.453 10.5.453S6.369.532 4.298.808c-1.104.148-2.277.375-3.106 1.193C.295 2.898.118 4.22.04 5.432c-.089 1.4-.01 2.81.079 4.21.089 1.38.246 2.77.582 4.112.157.621.364 1.252.73 1.784.344.513.847.878 1.409 1.134 1.193.543 2.564.592 3.855.67 1.262.08 2.534.129 3.806.129 1.272-.01 2.544-.05 3.806-.128 1.291-.08 2.662-.128 3.855-.67.562-.257 1.065-.622 1.41-1.135.365-.532.572-1.163.73-1.784.335-1.341.493-2.741.581-4.112.089-1.4.168-2.8.08-4.21z"/>
    <path fill-rule="evenodd" clip-rule="evenodd" d="M10.51 11.128c-2.376 0-2.987-.434-3.924-4.437-.936-4.013-1.143-5.285-1.143-5.285s-.414.06-.828.207c-.415.148-.523.336-.523.336s-.089 2.83.414 7.996.611 6.044.611 6.044.809.473 1.193.532c.345.05.503.04.503.04s.237-1.134.582-2.2c.513-1.567.631-2.306 3.106-2.306v-.927h.01z"/>
    <path fill-rule="evenodd" clip-rule="evenodd" d="M10.51 12.049c-1.489 0-2.17.305-2.534.877-.227.365-.375.848-.572 1.46-.197.591-.207.739-.296 1.035a26.848 26.848 0 0 0-.276 1.134s-.552-.01-.818-.09c-.473-.157-.65-.226-.937-.384 0 0 .05-.049.04-.118-.04-.463-.424-4.18-.464-4.585-.079-.769-.03-.266-.138-1.44a116.804 116.804 0 0 1-.325-4.21c-.138-2.464-.099-3.785-.099-3.785s.089-.168.444-.306c.059-.03.572-.247.582-.138.01.089.039.345.128.848.128.759.384 2.08.877 4.2l.03.138c.473 2.031.493 3.135 1.025 3.885.217.305.424.522.66.68.553.395 1.273.641 2.673.799z"/>
    <path fill-rule="evenodd" clip-rule="evenodd" d="M.213 4.525S.46 2.14 2.303 1.508C4.789.66 7.698.748 10.518.748V.454c-.907 0-6.251.01-8.39.907C.222 2.16.163 4.515.163 4.515l.05.01zM10.508 11.128c2.376 0 2.987-.434 3.924-4.437.937-4.013 1.144-5.285 1.144-5.285s.414.06.828.207c.414.148.523.336.523.336s.088 2.83-.415 7.996-.611 6.044-.611 6.044-.808.473-1.193.532c-.345.05-.503.04-.503.04s-.236-1.134-.582-2.2c-.512-1.567-.63-2.306-3.095-2.306v-.927h-.02z"/>
    <path fill-rule="evenodd" clip-rule="evenodd" d="M19.127 14.722c-.069.178-.424.72-.799 1.026-.818.66-2.593.986-3.342.917-.089-.01-.503.01-.572-.01.276-.03.69-.148 1.144-.355.118-.05.286-.138.404-.207.02.03.069.04.118.05.207.029 1.519-.208 2.041-.79.148-.167.424-.434.592-.798.069.03.138.049.207.079.069.039.138.069.207.088zM18.742 14.523c.04-.08.207-.602.286-.957.02-.089.178-.937.207-1.094.099-.454.217-1.223.306-2.1.167-1.746.266-3.727.266-4.349.02.09.04 1.046.05 1.184.01.078.01.601.01.7 0 2.484-.543 6.35-1.125 6.616z"/>
</symbol><symbol id="icon-close" viewBox="0 0 19 19">
    <path d="M18.58.435a1.436 1.436 0 0 0-2.033 0L9.5 7.468 2.453.421A1.437 1.437 0 1 0 .42 2.453L7.468 9.5.421 16.547a1.437 1.437 0 1 0 2.032 2.032L9.5 11.532l7.047 7.047a1.437 1.437 0 0 0 2.032-2.032L11.532 9.5l7.047-7.047a1.444 1.444 0 0 0 0-2.018z"/>
</symbol><symbol id="icon" viewBox="0 0 32 32">
    <path fill-rule="evenodd" clip-rule="evenodd" d="M14.505 3.13c.26-.015.498-.05.527-.08.069-.067 1.887-.067 1.957 0 .029.029.241.065.47.08.459.03.957.106 1.325.199l.446.113a21.199 21.199 0 0 0 .432.104c.202.046.572.172 1.242.422.763.285 2.07 1.033 2.91 1.666.645.486 2.077 1.905 2.551 2.528.395.518 1.109 1.68 1.322 2.149l.029.063.258.569c.158.346.562 1.524.646 1.88.205.867.38 2.346.38 3.201 0 .673-.158 2.205-.276 2.672l-.065.256-.051.203c-.03.115-.076.303-.103.418a12.37 12.37 0 0 1-.53 1.53l-.291.64c-.23.506-1.043 1.799-1.495 2.377-.377.482-1.875 1.918-2.413 2.313-.923.677-1.96 1.28-2.62 1.524-.117.043-.35.134-.518.201-.565.227-.752.293-.962.342-.255.059-.608.145-.906.222-1.244.32-3.742.374-5.031.109a84.693 84.693 0 0 0-.558-.112c-.598-.118-1.04-.255-2.063-.638-.896-.336-2.882-1.501-3.343-1.962a3.897 3.897 0 0 0-.334-.28c-.267-.201-1.168-1.1-1.367-1.365a4.87 4.87 0 0 0-.223-.278c-.264-.284-.81-1.077-1.122-1.632-.493-.876-.554-.992-.655-1.256a45.906 45.906 0 0 0-.223-.567c-.225-.56-.49-1.402-.559-1.78a38.823 38.823 0 0 0-.107-.557 8.637 8.637 0 0 1-.183-1.711c-.01-.752.02-.787.449-.495.14.096.217.149.285.212.087.08.16.175.323.393.28.372.415.628.476.905.026.115.074.315.108.445s.074.377.088.549c.025.289.006.353-.256.875-.23.457-.284.618-.284.847 0 .33.054.452.325.735.184.193.224.209.512.209.292 0 .327-.015.552-.237.222-.22.507-.681.507-.823 0-.099.338-.564.577-.794.12-.117.39-.299.6-.404.364-.183.407-.191.982-.19.643 0 .844.047 1.412.334.738.372 1.446 1.332 1.446 1.961 0 .274-.019.317-.254.572a3.52 3.52 0 0 0-.446.65c-.16.314-.192.434-.192.737 0 .352.008.37.242.614.213.223.269.251.483.251.213 0 .27-.029.47-.238a1.26 1.26 0 0 0 .305-.514c.176-.627.441-.918.836-.917.248 0 .525.12.716.31.044.045.172.15.284.233.113.084.268.217.345.297.175.181 1.08.865 1.275.964.183.092.564.163.564.105 0-.023-.132-.169-.293-.323-.314-.3-.501-.53-.864-1.058a7.039 7.039 0 0 0-.4-.528c-.094-.108-.171-.212-.171-.233 0-.02-.157-.157-.348-.302-.406-.308-.802-.467-1.16-.467-.305 0-.388-.07-.388-.328 0-.106-.024-.27-.053-.364-.029-.094-.092-.31-.141-.48-.099-.346-.557-1.06-.928-1.449-.481-.502-1.183-.938-1.777-1.102a26.931 26.931 0 0 1-.422-.122c-.094-.028-.381-.052-.637-.052-.257 0-.543.024-.638.052a22.81 22.81 0 0 1-.422.122 4.623 4.623 0 0 0-.632.257c-.547.27-.56.262-.601-.404a6.398 6.398 0 0 0-.089-.778c-.109-.453-.589-1.243-.959-1.578-.312-.284-1.135-.788-1.285-.788-.224 0-.467-.206-.42-.355.037-.113.081-.329.188-.911.07-.384.335-1.224.565-1.795.067-.169.158-.402.202-.518.265-.715 1.284-2.378 1.792-2.923a3.475 3.475 0 0 0 .223-.278c.197-.262 1.21-1.274 1.473-1.471.111-.084.237-.184.279-.223.32-.296 1.229-.908 1.745-1.174.215-.11.453-.236.53-.278.584-.324 1.936-.842 2.592-.993.123-.028.324-.077.446-.109a7.522 7.522 0 0 1 1.366-.196zm7.348 13.194c-.677-.342-1.463-.53-2.693-.641a41.71 41.71 0 0 0-2.15-.082c-1.455-.024-1.542-.02-1.632.08-.185.204-.316.754-.38 1.595-.056.746-.056.839-.015 2.36.025.96.018 1.089-.066 1.182-.052.057-.138.104-.19.104-.143 0-.39.216-.39.342 0 .145.092.318.269.507.114.122.193.153.386.153.285 0 .482-.091.708-.328.29-.305.309-.44.31-2.26 0-1.579.007-1.68.114-1.855.219-.358.48-.561.904-.704.275-.093.474-.093 3.69 0 1.044.03 1.326-.001 1.435-.163.058-.085.008-.134-.3-.29zm1.73 1.371a2.085 2.085 0 0 0-.372-.529c-.45-.448-.51-.362-.51.725v.842l.248.245c.137.135.319.267.404.294.174.056.695.128 1.41.197.59.057.85.138 1.068.332.353.314.444 1.116.185 1.626-.146.288-.406.497-.619.497a.284.284 0 0 0-.192.088c-.093.113-.02.236.222.378.171.1.19.1.485.008.555-.174.95-.593 1.044-1.107.063-.344.069-1.157.01-1.426a.83.83 0 0 0-.16-.326c-.137-.15-.598-.398-.745-.399-.054 0-.212-.041-.35-.091a3.615 3.615 0 0 0-.502-.135 8.706 8.706 0 0 1-.502-.107 8.907 8.907 0 0 0-.418-.093c-.228-.043-.322-.137-.464-.463l-.241-.556zm-3.67 3.895c0 .922-.749 1.67-1.673 1.67a1.671 1.671 0 0 1-1.672-1.67c0-.922.749-1.67 1.672-1.67.924 0 1.673.748 1.673 1.67zm4.572.223a1.56 1.56 0 0 1-1.561 1.559 1.56 1.56 0 0 1 0-3.117 1.56 1.56 0 0 1 1.56 1.558z"/>
</symbol><symbol id="instagram" viewBox="0 0 32 32">
    <path d="M15.996 11.665A4.344 4.344 0 0 0 11.662 16a4.344 4.344 0 0 0 4.335 4.335A4.344 4.344 0 0 0 20.332 16a4.344 4.344 0 0 0-4.336-4.335zM28.998 16c0-1.795.017-3.574-.084-5.366-.1-2.082-.576-3.929-2.098-5.45-1.525-1.526-3.369-1.998-5.45-2.098C19.57 2.985 17.792 3 16 3c-1.795 0-3.574-.016-5.366.085-2.082.1-3.929.575-5.45 2.097-1.526 1.525-1.998 3.37-2.098 5.45C2.985 12.43 3 14.209 3 16c0 1.792-.016 3.574.085 5.366.1 2.082.575 3.929 2.097 5.45 1.525 1.526 3.37 1.998 5.45 2.099 1.796.1 3.575.084 5.367.084 1.795 0 3.574.016 5.366-.084 2.081-.101 3.928-.576 5.45-2.098 1.526-1.526 1.997-3.37 2.098-5.45.104-1.793.084-3.572.084-5.367zm-13.002 6.67A6.66 6.66 0 0 1 9.326 16a6.66 6.66 0 0 1 6.67-6.67 6.66 6.66 0 0 1 6.67 6.67 6.66 6.66 0 0 1-6.67 6.67zm6.944-12.056a1.556 1.556 0 0 1-1.558-1.557c0-.862.696-1.558 1.558-1.558a1.556 1.556 0 0 1 1.44 2.154 1.556 1.556 0 0 1-1.44.961z"/>
</symbol><symbol id="jeep" viewBox="0 0 30 20">
    <path d="M19.422 8.426a.372.372 0 0 0 .024-.346L17.79 4.476a.365.365 0 0 0-.32-.218H4.952a.402.402 0 0 0-.38.38V8.23c0 .195.186.363.38.363h14.175a.357.357 0 0 0 .296-.168zm-10.75-.535H5.273V4.96h3.399v2.93zm4.863 0h-4.16V4.96h4.16v2.93zm.703 0V4.96h3.008l1.331 2.93h-4.339zM13.482 12.578h-.31a.352.352 0 0 0 0 .703h.31a.351.351 0 1 0 0-.703z"/>
    <path d="M20.279 12.578h-6.627a.352.352 0 0 0 0 .703h6.627a.351.351 0 1 0 0-.703zM7.855 13.957a1.718 1.718 0 1 0 0 3.437 1.718 1.718 0 0 0 0-3.437zm0 2.733a1.015 1.015 0 1 1 0-2.03 1.015 1.015 0 0 1 0 2.03zM24.027 13.957a1.718 1.718 0 1 0 0 3.436 1.718 1.718 0 0 0 0-3.436zm0 2.733a1.015 1.015 0 1 1 0-2.03 1.015 1.015 0 0 1 0 2.03z"/>
    <path d="M29.018 14.043h-.248v-3.466a2.099 2.099 0 0 0-1.884-2.098l-5.534-.576-1.867-4.138a2.105 2.105 0 0 0-1.914-1.232h-.11V.988a.353.353 0 0 0-.342-.363H5.48c-.195 0-.381.169-.381.363V2.5h-.1a2.107 2.107 0 0 0-1.498.606 2.084 2.084 0 0 0-.629 1.486v1.424h-.717c-.84 0-1.51.706-1.51 1.546v4.09a1.504 1.504 0 0 0 1.51 1.512h.717v.879h-.217a.388.388 0 0 0-.369.375v2.46a.334.334 0 0 0 .112.238c.07.063.163.095.257.091h1.843a3.687 3.687 0 0 0 6.698.023h9.485a3.686 3.686 0 0 0 6.698-.023h1.64a.319.319 0 0 0 .314-.199.322.322 0 0 0 .023-.13v-2.46a.373.373 0 0 0-.205-.342.348.348 0 0 0-.132-.033zM2.87 12.461h-.717a.8.8 0 0 1-.806-.81V7.562c0-.452.354-.843.806-.843h.717v5.742zM13.945 1.328h2.813v1.203l-2.813-.008V1.328zm-4.629 0h3.926v1.194l-3.926-.01V1.327zm-3.515 0h2.812V2.51l-2.812-.007V1.328zM4.258 16.504h-1.27v-1.758h1.294a3.68 3.68 0 0 0-.024 1.758zm3.594 2.157a2.984 2.984 0 1 1-.001-5.97 2.984 2.984 0 0 1 0 5.97zm12.583-2.134H11.44a3.679 3.679 0 0 0-.013-1.758h9.02a3.679 3.679 0 0 0-.012 1.758zm3.588 2.134a2.984 2.984 0 1 1 0-5.97 2.984 2.984 0 0 1 0 5.97zm3.307-4.618a3.688 3.688 0 0 0-6.625.023H11.17a3.688 3.688 0 0 0-6.625-.023h-.97V4.592a1.385 1.385 0 0 1 .422-.987 1.41 1.41 0 0 1 1.001-.402h.005l12.566.033a1.405 1.405 0 0 1 1.277.823l1.952 4.32a.35.35 0 0 0 .284.203l5.738.601a1.395 1.395 0 0 1 1.036.641h-.971a.571.571 0 0 0-.576.578v1.484a.569.569 0 0 0 .576.575h1.181v1.582h-.736zm.747-3.516a.232.232 0 0 0-.01.05v1.18h-1.055v-1.23h1.065zm.575 5.977h-1.035a3.679 3.679 0 0 0-.024-1.758h1.06v1.758z"/>
</symbol><symbol id="lexus" viewBox="0 0 21 16">
    <path fill-rule="evenodd" clip-rule="evenodd" d="M10.915 1.26C9.808 2.614 6.672 7.01 6.303 7.565c-.676 1.076-.738 1.63-.769 1.967-.03.339-.03.954.554 1.476.953.83 2.244.707 3.413.707h9.623c.4 0 .523-.123.77-.43C20.661 10.116 21 8.824 21 7.687c0-2.46-1.599-5.535-5.596-6.918l-.461.645c3.198 1.507 4.52 3.505 4.52 6.273.03.738-.185 1.537-.677 2.275H9.44c-.553 0-.645-.646-.43-.984.83-1.476 1.69-2.767 2.675-4.12.953-1.26 1.875-2.46 2.86-3.69.276-.338.091-.676-.431-.768-1.107-.216-2.245-.4-3.628-.4C2.798 0 0 4.397 0 7.687c0 3.535 2.829 7.656 10.515 7.656 4.274 0 7.041-1.384 8.67-3.137h-1.629c-1.414 1.292-3.843 2.214-7.04 2.214-6.519 0-8.917-3.659-8.917-6.795C1.66 4.827 4.212.953 10.669.8c.246.031.43.246.246.462z"/>
</symbol><symbol id="list-add" viewBox="0 0 20 20">
    <path d="M14.582 11.668v4.167m-11.25-4.167h6.667-6.667zm0 3.75h6.667-6.667zm0-7.5h13.333H3.332zm0-3.75h13.333H3.332zm9.167 9.583h4.166H12.5z" stroke-width="1.667" stroke-linecap="round" stroke-linejoin="round"/>
</symbol><symbol id="list" viewBox="0 0 24.375 16.875">
    <path stroke-linejoin="round" stroke-linecap="round" stroke-width="1.875" d="M6.563 1.875h16.875M6.563 8.438h16.875M6.563 15h16.875M1.875 2.813a.937.937 0 1 0 0-1.875.937.937 0 0 0 0 1.875zM1.875 9.375a.937.937 0 1 0 0-1.875.937.937 0 0 0 0 1.875z"/>
    <path stroke-linejoin="round" stroke-linecap="round" stroke-width="1.875" d="M1.875 15.938a.937.937 0 1 0 0-1.875.937.937 0 0 0 0 1.874z"/>
</symbol><symbol id="load" viewBox="0 0 22 20">
    <path d="M11 13l4-4m-4 4V1v12zm0 0L7 9l4 4zM1 15l.621 2.485A2 2 0 0 0 3.561 19h14.878a2 2 0 0 0 1.94-1.515L21 15" stroke-width="2" stroke-linecap="round" stroke-linejoin="round"/>
</symbol><symbol id="marker" viewBox="0 0 8.75 12.25">
    <path d="M4.375 0C1.96 0 0 1.764 0 3.938c0 3.5 4.375 8.312 4.375 8.312S8.75 7.437 8.75 3.937C8.75 1.764 6.79 0 4.375 0zm0 6.125a1.75 1.75 0 1 1 0-3.5 1.75 1.75 0 0 1 0 3.5z"/>
</symbol><symbol id="mazda" viewBox="0 0 20 17">
    <path fill-rule="evenodd" clip-rule="evenodd" d="M3.978 12.983c-.553-.331-.718-.762-1.558-1.104-.829-1.083-1.15-2.443-1.15-3.79 0-.984.178-1.979.443-2.862l.84 1.668a8.122 8.122 0 0 0-.078 1.193c0 5.514 3.658 6.63 7.525 6.62 3.856.01 7.525-1.106 7.525-6.62 0-.563-.033-1.082-.11-1.558l.596-1.226c.32.784.486 1.79.464 2.795-.033 1.636-.563 3.282-1.79 4.056l-.199.298-.21.265-.22.254-.244.232-.254.21-.265.2-.276.176-.288.166-.298.143-.31.133-.309.122-.32.099-.332.088-.331.078-.343.066-.342.055-.354.044-.353.034-.354.022-.365.022-.364.01h-.73l-.364-.01-.365-.022-.354-.022-.353-.034-.354-.044-.342-.055-.343-.066-.331-.078-.332-.088-.32-.1-.31-.121-.309-.133-.298-.143-.288-.166-.276-.177-.265-.199-.254-.21-.188-.22zM1.713 3.05l-.11-.11C.618 4.132 0 5.79 0 8.087c0 6.95 5.68 8.089 10 8.089s10-1.127 10-8.089c0-2.298-.619-3.955-1.602-5.149l-.11.11c-.023.608-.122 1.238-.21 1.835.43.928.64 2.033.662 3.215.067 3.459-1.69 7.083-8.729 7.326-4.43-.033-7.204-1.403-8.342-4.254-.752-.475-1.117-1.359-1.47-2.21L.177 8.73.166 8.1l.01-.63.045-.596.077-.564.11-.53.133-.497.155-.464.188-.442.21-.41.232-.386.21-.298c.077.585.188 1.359.365 1.514C4.144 6.674 8.077 6.43 9.978 10.22c2.066-4.199 5.702-3.669 7.945-5.558l.21-1.801C15.525 5.69 11.967 4.729 9.989 8.95c-2.155-4.132-5.658-3.116-8.276-5.9zM3.47 4.055C4.818 1.978 7.36 1.46 10 1.47c2.597-.011 5.094.486 6.464 2.508l1.613-1.227.1-.077C16.144.464 12.796 0 10 0 7.15 0 3.713.486 1.702 2.818l.033.033.055.044.033.022c.431.42.917.873 1.404 1.127.077.033.165.055.243.011zm14.453-1.403l-.73.453C15.04 1.205 12.73.74 9.99.762 7.215.74 4.796 1.238 2.663 3.26l-.751-.453.21-.221.309-.288.32-.265.343-.243.354-.22.364-.2.376-.188.387-.165.397-.144.41-.133.408-.11.42-.1.42-.088.42-.077.42-.056.43-.044.42-.033.42-.033.42-.022.41-.011h.817l.409.01.42.023.42.033.42.033.43.044.431.056.42.077.42.088.42.1.409.11.409.133.397.144.387.165.376.188.364.2.354.22.342.243.32.265.31.288.078.066zm-7.945 8.85C9.05 9.515 8.044 8.62 6.498 7.979L2.64 6.674l-.53-1.459c.95.73 2.353 1.227 3.679 1.735 2.055.785 3.171 1.79 4.188 3.834v.719zm0 0c.928-1.988 1.934-3.005 3.48-3.646l3.824-1.37.53-1.425c-.95.73-2.453 1.282-3.79 1.8-2.055.785-3.027 1.868-4.044 3.913v.729zm6.73-6.242l.231-.122.232-.132.221-.144.21-.155.155-.121.155-1.293-.188.177-.265.22-.266.2-.265.187-.276.166-.276.155-.277.143-.276.133-.563.254c-.464.2-.928.387-1.381.586l-.542.254-.265.133-.243.132c-.63.542-.95 1.06-1.083 1.613l.177-.143.265-.2.265-.176.265-.166.277-.154.276-.144.276-.133.276-.121.553-.221c.53-.21 1.072-.398 1.59-.608l.255-.11.243-.11.243-.1zm-4.62 1.27l-.033.022-.243.188-.232.21-.232.232-.066.067c-.221.42-.32.795-.31 1.16l.188-.21.243-.243.11-.1c.078-.43.266-.873.575-1.326zm-5.58-.652l-.541-.243c-.464-.187-.928-.364-1.381-.552l-.564-.243-.276-.133-.276-.143-.277-.155-.276-.166-.265-.177-.265-.199-.265-.22-.255-.233-.176-.176c.033.22.066.453.1.674l.043.232.044.21.045.165.044.11.044.056.199.155.22.154.233.144.232.133.243.132.254.122.254.121.53.221c.553.221 1.117.431 1.68.663l.564.243.287.133.276.144.277.154.276.166.144.1c-.332-.553-.74-1.072-1.172-1.592z"/>
</symbol><symbol id="minibus" viewBox="0 0 30 16">
    <path d="M.952 6.94l1.134-4.232A2.357 2.357 0 0 1 4.355.968h15.937a4.211 4.211 0 0 1 3.244 1.524l3.483 4.196.23.117a3.258 3.258 0 0 1 1.814 2.934v3.417a.469.469 0 0 1-.47.469h-3.009a2.343 2.343 0 0 1-4.293 0H9.178a2.344 2.344 0 0 1-4.294 0h-.651a5.13 5.13 0 0 1-2.86-.867l-.225-.15a.468.468 0 0 1-.21-.39V7.064a.54.54 0 0 1 .014-.122zm22.434-3.159h-2.63l.703 2.813h4.261L23.386 3.78zm4.739 6.563h-.469a.469.469 0 1 0 0 .937h.469v-.937zm-4.688 3.75a1.406 1.406 0 1 0 0-2.812 1.406 1.406 0 0 0 0 2.812zm-16.406 0a1.406 1.406 0 1 0 0-2.813 1.406 1.406 0 0 0 0 2.813zm-5.156-3.75h.469a.469.469 0 0 0 0-.938h-.469v.938zm0-1.875h.469a1.406 1.406 0 0 1 0 2.812h-.469v.685l.014.014c.694.462 1.51.708 2.344.707h.454a2.344 2.344 0 0 1 4.688 0h11.719a2.344 2.344 0 0 1 4.687 0h2.344v-.468h-.469a1.407 1.407 0 0 1 0-2.813h.446a2.328 2.328 0 0 0-1.276-1.767l-.22-.108h-5.512a.469.469 0 0 1-.455-.356l-.938-3.75a.479.479 0 0 1 .085-.403.469.469 0 0 1 .37-.178h2.428a3.253 3.253 0 0 0-2.292-.938H4.355a1.41 1.41 0 0 0-1.36 1.046l-1.12 4.171V8.47z"/>
    <path d="M2.827 6.95l.938-3.75a.469.469 0 0 1 .454-.356h14.063a.469.469 0 0 1 .454.356l.938 3.75a.479.479 0 0 1-.084.403.468.468 0 0 1-.37.178H3.281a.469.469 0 0 1-.37-.178.48.48 0 0 1-.085-.403zm11.236-.356h4.556l-.703-2.813h-3.853v2.813zm-4.687 0h3.75V3.78h-3.75v2.813zm-.938 0V3.78H4.585l-.703 2.813h4.556zM22.031 8h.938a.469.469 0 0 1 0 .938h-.938a.469.469 0 0 1 0-.938zM9.375 9.406h10.313a.47.47 0 0 1 0 .938H9.374a.469.469 0 0 1 0-.938z"/>
    <circle cx="7.002" cy="12.658" r=".469" stroke-width=".41"/>
    <circle cx="23.408" cy="12.658" r=".469" stroke-width=".41"/>
</symbol><symbol id="mitsubishi" viewBox="0 0 20 18">
    <path fill-rule="evenodd" clip-rule="evenodd" d="M9.953 11.79H3.298L0 17.577h6.667l3.286-5.789zM13.33 5.848L9.998 0 6.664 5.848l3.333 5.86 3.334-5.86zM13.32 17.578H20l-3.298-5.789h-6.655l3.274 5.789z"/>
</symbol><symbol id="nissan" viewBox="0 0 23 21">
    <g clip-path="url(#a)">
        <path d="M3.257 7.803a8.668 8.668 0 0 1 16.487 0l.01.03h2.632v-.321l-1.093-.13c-.673-.08-.817-.384-1-.77l-.047-.095a9.584 9.584 0 0 0-17.492 0l-.044.093c-.176.386-.328.69-1 .77l-1.093.132v.322h2.631l.009-.031zM19.757 13.177l-.01.03a8.719 8.719 0 0 1-8.245 5.999 8.712 8.712 0 0 1-8.243-6l-.01-.03H.616v.322l1.091.13c.672.08.818.384 1 .77l.044.093a9.677 9.677 0 0 0 8.747 5.662 9.677 9.677 0 0 0 8.747-5.666l.044-.094c.175-.385.326-.688 1-.769l1.092-.13v-.322l-2.625.005zM5.342 9.273h-.615v2.67h.615v-2.67zM3.285 11.943v-2.67h-.584v1.99L.752 9.272H0v2.67h.584V9.94l1.963 2.003h.738zM16.513 9.273l-1.724 2.67h.747l.307-.477h2.012l.307.477h.74l-1.731-2.67h-.658zm1.02 1.688H16.15l.691-1.074.691 1.074zM13.526 11.378h-2.564v.551h2.677a.818.818 0 0 0 .035-1.622 1.872 1.872 0 0 0-.198 0H11.85a.963.963 0 0 1-.176-.014.23.23 0 0 1-.175-.234.242.242 0 0 1 .175-.231.615.615 0 0 1 .176-.012h2.338v-.542h-2.375a1.763 1.763 0 0 0-.237.012.786.786 0 0 0-.01 1.56c.084.008.169.012.254.01h1.578a1.14 1.14 0 0 1 .114 0 .266.266 0 0 1 .18.435.265.265 0 0 1-.166.09M9.01 11.378H6.444v.551H9.12a.818.818 0 0 0 .04-1.622 1.872 1.872 0 0 0-.2 0H7.339a.973.973 0 0 1-.175-.014.231.231 0 0 1-.175-.234.242.242 0 0 1 .175-.231.615.615 0 0 1 .175-.012h2.338v-.542H7.29a1.753 1.753 0 0 0-.236.012.786.786 0 0 0-.011 1.56c.085.008.17.012.256.01h1.693a.265.265 0 0 1 .014.526M22.998 11.943v-2.67h-.586v1.99l-1.947-1.99h-.754v2.67h.586V9.94l1.962 2.003h.739z"/>
    </g>
    
</symbol><symbol id="phone_circle" viewBox="0 0 40 40">
    <path d="M20 2c9.925 0 18 8.075 18 18s-8.075 18-18 18S2 29.925 2 20 10.075 2 20 2m0-2C8.955 0 0 8.954 0 20c0 11.047 8.955 20 20 20 11.047 0 20-8.953 20-20C40 8.954 31.047 0 20 0z"/>
    <path clip-rule="evenodd" d="M14.371 9.793c1.207-.228 1.998 1.133 2.6 2.072.586.912 1.307 1.982 1.016 3.169-.162.666-.764 1.029-1.219 1.422-.449.388-1.133.744-1.299 1.34-.271.967.322 1.982.689 2.56a14.704 14.704 0 0 0 3.129 3.534c.623.51 1.488 1.191 2.355 1.016 1.295-.262 1.637-1.859 3.047-2.072 1.342-.203 2.25.77 3.008 1.422.73.631 1.908 1.439 1.828 2.52-.047.621-.545 1.006-.977 1.381-.439.383-.824.813-1.258 1.096-1.051.686-2.34 1.022-3.82.976-1.451-.045-2.607-.538-3.656-1.097-2.051-1.094-3.672-2.633-5.199-4.348-1.502-1.686-2.889-3.682-3.656-5.889-.957-2.756-.451-5.587 1.098-7.353.262-.3.676-.613 1.055-.935.378-.323.728-.714 1.259-.814z" fill-rule="evenodd"/>
</symbol><symbol id="road" viewBox="0 0 16 12">
    <path d="M15.922 10.583l-3.883-10C11.901.228 11.6 0 11.269 0h-2.71l.067.724C8.64.87 8.537 1 8.406 1h-.81C7.462 1 7.36.871 7.373.724L7.442 0h-2.71C4.4 0 4.098.228 3.96.583l-3.883 10C-.18 11.246.23 12 .848 12h5.468l.287-3.053c.024-.254.214-.447.442-.447h1.91c.228 0 .419.193.443.447L9.684 12h5.468c.617 0 1.027-.754.77-1.417zm-8.689-8.36a.262.262 0 0 1 .073-.159A.209.209 0 0 1 7.455 2h1.091c.114 0 .21.097.221.224l.128 1.362c.02.221-.134.414-.332.414H7.437c-.198 0-.352-.193-.331-.414l.127-1.362zM8.768 7.5H7.232c-.264 0-.47-.257-.442-.553l.141-1.5c.024-.254.214-.447.442-.447h1.254c.228 0 .418.193.442.447l.14 1.5c.029.296-.177.553-.441.553z"/>
</symbol><symbol id="search" viewBox="0 0 24 24">
    <path d="M10.364 3a7.364 7.364 0 1 0 0 14.727 7.364 7.364 0 0 0 0-14.727z" stroke-width="1.5" stroke-miterlimit="10"/>
    <path d="M15.855 15.855l5.143 5.143" stroke-width="1.5" stroke-miterlimit="10" stroke-linecap="round"/>
</symbol><symbol id="sedan" viewBox="0 0 30 12">
    <path d="M5.744 9.59a.438.438 0 0 0 .31-.129l.665-.664a.44.44 0 1 0-.621-.621l-.665.664a.44.44 0 0 0 .311.75zM24.418 9.461a.438.438 0 0 0 .621 0 .44.44 0 0 0 0-.621l-.664-.664a.44.44 0 0 0-.621.621l.664.664z"/>
    <path d="M28.675 4.957c-2.482-1.153-6.216-1.263-6.97-1.273l-3.56-2.266A6.534 6.534 0 0 0 14.631.395h-4.185a7.05 7.05 0 0 0-3.137.74L5.08 2.25a6.59 6.59 0 0 1-2.135.646l-1.737.217A1.381 1.381 0 0 0 0 4.481v2.805c0 .821.551 1.552 1.34 1.778l2.077.593a2.793 2.793 0 0 0 2.659 1.95 2.79 2.79 0 0 0 2.421-1.41h13.475a2.79 2.79 0 0 0 2.422 1.41 2.791 2.791 0 0 0 2.788-2.788 2.791 2.791 0 0 0-2.788-2.788 2.791 2.791 0 0 0-2.742 3.288H8.818A2.791 2.791 0 0 0 6.076 6.03c-1.5 0-2.726 1.19-2.785 2.676l-1.709-.489a.974.974 0 0 1-.703-.932V5.97h.5a.44.44 0 0 0 0-.879h-.5v-.61a.5.5 0 0 1 .438-.496l1.737-.217a7.466 7.466 0 0 0 2.419-.732l.2-.1.813.809a2.77 2.77 0 0 0 1.972.816h.906a.44.44 0 0 0 0-.879h-.906c-.077 0-.153-.005-.228-.014l.485-2.144a6.16 6.16 0 0 1 1.731-.25h2.236v2.408h-3.44a.44.44 0 0 0 0 .88h12.334c.041 0 4.193.014 6.729 1.192.148.069.281.164.394.277h-.548a.44.44 0 0 0 0 .879h.962c.005.047.008.095.008.144v1.559c0 .435-2.191.706-2.5.706a.44.44 0 0 0 0 .879c.39 0 2.743-.16 2.996-.451.25-.288.383-.68.383-1.134v-1.56c0-.9-.52-1.722-1.325-2.096zM24.394 6.91c1.053 0 1.909.856 1.909 1.909a1.911 1.911 0 0 1-1.91 1.909 1.911 1.911 0 0 1-1.908-1.91c0-1.052.856-1.908 1.909-1.908zm-18.318 0c1.052 0 1.909.856 1.909 1.909a1.911 1.911 0 0 1-1.91 1.909 1.911 1.911 0 0 1-1.908-1.91c0-1.052.856-1.908 1.909-1.908zm1.322-3.548c-.103-.07-.2-.149-.29-.239l-.603-.603 1.197-.599.025-.012-.329 1.453zm6.163-2.089h1.07c1.08 0 2.131.307 3.042.886l2.394 1.523H13.56V1.273z"/>
    <path d="M10.307 7.441a.44.44 0 0 0 0 .88h9.863a.44.44 0 0 0 0-.88h-9.863z"/>
</symbol><symbol id="share" viewBox="0 0 13 14">
    <path d="M9.815 9.123a2.18 2.18 0 0 0-1.526.622L4.315 7.51a2.178 2.178 0 0 0 0-1.025L8.287 4.25a2.18 2.18 0 1 0-.633-1.221L3.588 5.316a2.187 2.187 0 1 0 0 3.362l4.066 2.288a2.188 2.188 0 1 0 2.16-1.843z"/>
</symbol><symbol id="star" viewBox="0 0 10 9">
    <path d="M5 0l1.548 2.962L10 3.45 7.5 5.737 8.095 9 5 7.463 1.905 9 2.5 5.737 0 3.45l3.452-.488L5 0z"/>
</symbol><symbol id="subaru" viewBox="0 0 41 23">
    <path d="M0 11.653C0 5.49 9.272.5 20.17.5c10.9 0 20 4.991 20 11.153 0 6.162-9.101 11.154-19.998 11.154-11.047 0-20.17-4.994-20.17-11.153H0zm20.18 9.974c10.09 0 18.517-4.466 18.517-9.974 0-5.55-8.516-9.973-18.517-9.973-10.087 0-18.704 4.422-18.704 9.973 0 5.508 8.27 9.974 18.704 9.974zm5.215-3.941c.299.047 1.35.207 1.78.288.168.02.326.09.454.204.128.114.22.264.263.432.059.146.146.46.193.641.062.23.145.58.155.61.009.027.025.05.048.066a.12.12 0 0 0 .076.023c.026 0 .052-.01.073-.025a.131.131 0 0 0 .046-.065c.021-.051.114-.407.174-.62.055-.213.121-.423.198-.629a.888.888 0 0 1 .252-.412.847.847 0 0 1 .424-.213 49.509 49.509 0 0 1 1.915-.27c.371-.042 1.18-.151 1.273-.16.094-.01.14-.076.14-.141 0-.066-.04-.128-.144-.14a56.277 56.277 0 0 1-1.269-.138c-.57-.07-1.548-.217-1.876-.292a.79.79 0 0 1-.401-.16.825.825 0 0 1-.265-.35 3.086 3.086 0 0 1-.213-.59c-.036-.147-.176-.629-.196-.708-.02-.094-.073-.122-.128-.122-.055 0-.11.021-.136.127-.026.107-.145.558-.193.713a5.198 5.198 0 0 1-.2.573.847.847 0 0 1-.258.35.811.811 0 0 1-.392.168c-.556.115-1.56.278-1.796.319-.57.12-1.156.15-1.735.087-.474-.044-1.538-.216-2.242-.329-.427-.063-.864-.1-1.101-.51a3.745 3.745 0 0 1-.309-.789c-.081-.261-.206-.72-.233-.833-.03-.09-.062-.14-.141-.14-.08 0-.116.05-.142.148-.026.097-.168.585-.234.816a3 3 0 0 1-.315.8c-.24.36-.467.406-1.05.509a33.37 33.37 0 0 1-1.962.255c-.52.063-.848.098-1.04.12-.094.012-.15.044-.15.14 0 .095.056.132.15.144.174.025.685.083 1.044.12.6.064 1.143.121 1.958.255.79.127.927.235 1.183.85.101.249.177.507.226.771.056.26.173.78.192.887a.145.145 0 0 0 .037.1.136.136 0 0 0 .096.044c.086 0 .123-.058.14-.148.02-.12.141-.67.198-.883.056-.261.13-.518.217-.77.254-.665.46-.736 1.23-.858.592-.094 1.691-.266 2.248-.331a5.458 5.458 0 0 1 1.738.073v-.007zm5.834-4.202c.322.046.87.156 1.483.298.15.024.29.091.404.195.114.104.196.24.237.39.094.29.175.586.24.885.072.271.12.51.124.551a.15.15 0 0 0 .045.088.143.143 0 0 0 .089.04.137.137 0 0 0 .09-.034.145.145 0 0 0 .048-.086c.013-.058.062-.296.124-.564.071-.288.153-.608.24-.883a.776.776 0 0 1 .215-.367.74.74 0 0 1 .372-.192c.344-.08.91-.179 1.372-.249.402-.063 1.094-.153 1.19-.168.096-.016.141-.08.141-.14a.145.145 0 0 0-.04-.103.136.136 0 0 0-.1-.04c-.1-.017-.766-.11-1.196-.175-.527-.081-1.07-.171-1.367-.24a.806.806 0 0 1-.319-.156.835.835 0 0 1-.225-.278 4.34 4.34 0 0 1-.254-.68 35.354 35.354 0 0 0-.156-.58.138.138 0 0 0-.049-.08.131.131 0 0 0-.088-.03.13.13 0 0 0-.086.034.138.138 0 0 0-.045.082c-.027.104-.097.366-.16.578-.058.234-.14.461-.247.677a.815.815 0 0 1-.249.3.782.782 0 0 1-.355.145c-.618.135-1.149.25-1.482.302a5.637 5.637 0 0 1-2.155.008c-.49-.076-1.314-.203-1.962-.331a1.052 1.052 0 0 1-.494-.16 1.092 1.092 0 0 1-.364-.38 5.7 5.7 0 0 1-.276-.822c-.054-.185-.16-.56-.197-.7-.026-.097-.062-.136-.14-.136-.08 0-.115.04-.14.136-.037.122-.135.485-.196.7a5.48 5.48 0 0 1-.28.82 1.034 1.034 0 0 1-.353.382.994.994 0 0 1-.488.157c-.538.116-1.397.21-2.162.293-.34.045-.963.12-1.107.143a.12.12 0 0 0-.094.039.127.127 0 0 0-.035.097c0 .085.033.127.128.139.133.02.864.106 1.103.134.41.047 1.393.186 2.162.298.244.01.475.11.653.282.178.17.29.402.317.652.082.346.155.602.208.87.047.218.123.565.142.636.028.1.075.142.136.142.061 0 .12-.03.145-.146.013-.064.106-.497.13-.616.056-.254.129-.564.212-.888.157-.573.32-.77.988-.93.524-.127 1.487-.254 1.953-.318a5.724 5.724 0 0 1 2.162-.012l.008-.01zm4.644-4.48c-.057 0-.887-.117-1.325-.177-.508-.077-1.137-.15-1.704-.277a.926.926 0 0 1-.406-.169.962.962 0 0 1-.287-.34 6.632 6.632 0 0 1-.309-.936c-.04-.132-.134-.505-.157-.595-.027-.103-.084-.127-.135-.127-.051 0-.106.017-.139.127-.026.094-.117.418-.162.584a7.222 7.222 0 0 1-.31.95.972.972 0 0 1-.33.367.934.934 0 0 1-.461.152c-.394.067-1.2.184-2.005.292a8.858 8.858 0 0 1-3.142.021c-.452-.049-1.646-.206-2.038-.262-1.444-.176-3.843-.428-5.302-.693a2.125 2.125 0 0 1-1.2-.433 2.228 2.228 0 0 1-.758-1.053c-.26-.692-.48-1.399-.66-2.117-.145-.525-.308-1.243-.364-1.482-.027-.115-.073-.154-.146-.154-.074 0-.11.036-.144.154-.062.236-.248.982-.389 1.48a20.17 20.17 0 0 1-.65 2.119c-.397.98-.9 1.28-1.935 1.492-1.478.29-3.279.517-4.948.703a1757.003 1757.003 0 0 0-3.35.378.133.133 0 0 0-.078.075.142.142 0 0 0 .032.156.133.133 0 0 0 .1.037c.1.014 2.54.278 3.305.364 1.73.19 3.333.4 4.866.673a2.301 2.301 0 0 1 1.4.633c.384.367.637.857.72 1.39.222.77.521 2.117.625 2.643.103.463.28 1.43.302 1.514.021.105.068.148.14.148.072 0 .118-.037.146-.148.018-.093.198-1.086.29-1.517.112-.516.418-1.923.629-2.652.377-1.282.746-1.73 2.066-1.966 1.32-.237 3.822-.549 5.313-.732.374-.048 1.235-.123 2.03-.223a9.174 9.174 0 0 1 3.151.03c.79.098 1.33.176 1.965.287.197 0 .389.07.544.195a.914.914 0 0 1 .312.499c.124.363.223.764.288 1.034.06.24.135.628.154.71a.137.137 0 0 0 .042.085.129.129 0 0 0 .086.034.145.145 0 0 0 .089-.035.153.153 0 0 0 .05-.083c.021-.102.092-.472.15-.71.056-.24.19-.74.289-1.035a.939.939 0 0 1 .277-.457c.134-.12.3-.198.476-.223.422-.094 1.154-.195 1.684-.276.405-.059 1.255-.17 1.317-.18a.128.128 0 0 0 .096-.042.136.136 0 0 0 .036-.1.141.141 0 0 0-.042-.094.133.133 0 0 0-.094-.038z"/>
</symbol><symbol id="suv" viewBox="0 0 30 14">
    <path d="M5.744 11.063a.438.438 0 0 0 .31-.13l.665-.663a.44.44 0 1 0-.621-.622l-.665.665a.44.44 0 0 0 .311.75zM24.41 10.934a.438.438 0 0 0 .622 0 .44.44 0 0 0 0-.621l-.665-.665a.44.44 0 1 0-.621.622l.664.664z"/>
    <path d="M28.675 5.488c-2.482-1.153-6.216-1.263-6.97-1.273l-3.56-2.266A6.535 6.535 0 0 0 14.631.926H3.755c-.747 0-1.452.363-1.887.97L.52 3.787A2.773 2.773 0 0 0 0 5.405v3.192c0 .914.682 1.7 1.587 1.83l1.728.246a2.792 2.792 0 0 0 2.76 2.403A2.792 2.792 0 0 0 8.712 11.2h13.048a2.792 2.792 0 0 0 2.635 1.878 2.791 2.791 0 0 0 2.788-2.787 2.791 2.791 0 0 0-2.788-2.788 2.791 2.791 0 0 0-2.788 2.788v.03H8.864v-.03a2.791 2.791 0 0 0-2.787-2.788 2.792 2.792 0 0 0-2.742 2.287L1.71 9.558a.974.974 0 0 1-.832-.96V6.502h.5a.44.44 0 0 0 0-.88h-.5v-.216c0-.4.123-.784.356-1.11l1.349-1.889c.27-.377.707-.602 1.17-.602h.625L3.278 3.732a.9.9 0 0 0 .003.908.9.9 0 0 0 .786.453h17.509c.041 0 4.193.015 6.729 1.192.148.07.281.164.394.277h-.548a.44.44 0 0 0 0 .879h.962c.005.048.008.095.008.144V9.82c0 .275-1.938.5-2.214.5a.44.44 0 0 0 0 .879c.76 0 3.093-.619 3.093-1.38V7.586c0-.9-.52-1.723-1.325-2.097zM24.394 8.38c1.053 0 1.909.857 1.909 1.91a1.911 1.911 0 0 1-1.91 1.909 1.911 1.911 0 0 1-1.908-1.91c0-1.052.856-1.909 1.909-1.909zm-18.318 0c1.052 0 1.909.857 1.909 1.91a1.911 1.911 0 0 1-1.91 1.909 1.911 1.911 0 0 1-1.908-1.91c0-1.052.856-1.909 1.909-1.909zm11.597-5.69l2.394 1.524h-6.095l-.344-2.41h1.003c1.08 0 2.131.307 3.042.887zm-4.933-.885l.344 2.409h-4.22v-2.41h3.876zm-8.7 2.394c-.008-.015-.003-.025 0-.03l1.351-2.364h2.594v2.409H4.067c-.007 0-.017 0-.026-.015z"/>
    <path d="M10.307 8.441a.44.44 0 0 0 0 .88h9.863a.44.44 0 0 0 0-.88h-9.863z"/>
</symbol><symbol id="suzuki" viewBox="0 0 21 21">
    <path d="M20.99 14.585s-1.962.574-5.755 2.904c-3.402 2.091-4.735 3.5-4.735 3.5L0 13.74s4.41-3.25 8.105-.758l4.952 3.392.607-.39L0 6.404S1.972 5.841 5.754 3.5C9.156 1.409 10.5 0 10.5 0L21 7.26s-4.421 3.25-8.105.759L7.943 4.627l-.596.4 13.642 9.558z"/>
</symbol><symbol id="tel" viewBox="0 0 10 8">
    <path fill-rule="evenodd" clip-rule="evenodd" d="M2.933.481c-.15-.335-.31-.342-.453-.347-.117-.005-.252-.005-.386-.005a.74.74 0 0 0-.537.251c-.185.202-.705.688-.705 1.677 0 .99.722 1.945.822 2.08.1.134 1.394 2.229 3.441 3.035 1.702.67 2.048.536 2.418.503.37-.034 1.192-.487 1.36-.956.167-.47.167-.872.117-.956-.05-.084-.185-.134-.386-.235-.202-.1-1.192-.587-1.377-.654-.184-.067-.319-.1-.453.101s-.52.654-.638.788c-.117.134-.235.151-.436.05-.202-.1-.85-.312-1.62-.997-.6-.533-1.003-1.191-1.12-1.393-.118-.2-.013-.31.088-.41.09-.09.201-.235.302-.352.1-.117.134-.201.201-.335.067-.135.034-.252-.017-.352-.05-.101-.442-1.095-.62-1.493z"/>
</symbol><symbol id="telegram" viewBox="0 0 14 12">
    <path d="M13.959 1.08l-2.113 9.963c-.16.703-.575.878-1.165.547L7.46 9.218 5.91 10.712c-.172.172-.316.315-.647.315l.231-3.278 5.966-5.39c.26-.231-.057-.36-.403-.128L3.68 6.875.506 5.88c-.69-.216-.703-.69.144-1.022L13.068.074c.575-.215 1.078.128.89 1.007z"/>
</symbol><symbol id="telegram2" viewBox="0 0 1088 1088">
    <path d="M544 48C270 48 48 270 48 544s222 496 496 496 496-222 496-496S818 48 544 48zm243.6 339.8l-81.4 383.6c-6 27.2-22.2 33.8-44.8 21l-124-91.4-59.8 57.6c-6.6 6.6-12.2 12.2-25 12.2l8.8-126.2L691.2 437c10-8.8-2.2-13.8-15.4-5l-284 178.8-122.4-38.2c-26.6-8.4-27.2-26.6 5.6-39.4l478.2-184.4c22.2-8 41.6 5.4 34.4 39z"/>
</symbol><symbol id="toyota" viewBox="0 0 21 14">
    <path fill-rule="evenodd" clip-rule="evenodd" d="M12.906 5C12.614 2.75 11.583.946 10.552.946c-1.135 0-2.08 1.598-2.458 4.056h-.189C5.654 4.52 4.434 3.867 4.434 3.007c0-1.22 2.629-2.165 5.946-2.165 3.402 0 6.204.945 6.204 2.165 0 .86-1.41 1.719-3.678 1.994zM21 6.789C21 2.938 16.377 0 10.448 0 4.606 0 0 2.939 0 6.702c0 3.867 4.623 6.874 10.552 6.874C16.292 13.576 21 10.57 21 6.788zm-9.71 5.946c1.22-1.117 1.805-3.11 1.805-6.032l.086-.103c3.024-.378 5.087-1.701 5.087-3.11v-.104c.842.946 1.22 1.994 1.22 3.128 0 3.214-3.575 5.946-8.197 6.221zM2.732 3.317c-.103.086-.103.086-.103.189 0 1.409 2.062 2.646 5.19 3.11l.086.103v.19c0 2.835.67 4.811 1.804 5.842-4.811-.378-8.214-3.007-8.214-6.307 0-1.065.378-2.2 1.237-3.127zm9.229 1.873H9.125l-.189-.103c.292-1.598.842-2.544 1.512-2.544.757 0 1.22.842 1.513 2.544v.103zm.189 1.598c-.086 2.268-.74 3.867-1.598 3.867-.946 0-1.616-1.599-1.702-3.867h.086c.481 0 1.031.103 1.701.103.757 0 .946 0 1.513-.103z"/>
</symbol><symbol id="truck" viewBox="0 0 30 23">
    <path d="M6.094 18.031a1.406 1.406 0 1 0 0 2.813 1.406 1.406 0 0 0 0-2.813zm0 1.875a.469.469 0 1 1 0-.937.469.469 0 0 1 0 .937zM23.906 18.031a1.406 1.406 0 1 0 0 2.813 1.406 1.406 0 0 0 0-2.813zm0 1.875a.469.469 0 1 1 0-.937.469.469 0 0 1 0 .937z"/>
    <path d="M29.457 11.684L25.238 5.12a.47.47 0 0 0-.394-.215h-5.625V2.328a1.642 1.642 0 0 0-1.64-1.64H2.108a1.642 1.642 0 0 0-1.64 1.64v17.11a.469.469 0 0 0 .469.468h1.908a3.281 3.281 0 0 0 6.495 0h11.318a3.282 3.282 0 0 0 6.495 0h1.909a.47.47 0 0 0 .468-.468v-7.5a.47.47 0 0 0-.074-.254zM6.094 21.78a2.344 2.344 0 1 1 0-4.688 2.344 2.344 0 0 1 0 4.688zM18.28 18.97h-8.94a3.281 3.281 0 0 0-6.495 0h-1.44V14.28h16.875v4.688zm0-5.625H1.406V2.328a.704.704 0 0 1 .703-.703h15.47a.704.704 0 0 1 .702.703v11.016zm7.21-6.094l2.713 4.219h-6.642V7.25h3.93zm-1.585 14.531a2.344 2.344 0 1 1 0-4.688 2.344 2.344 0 0 1 0 4.688zm4.688-6.562h-.938a.469.469 0 0 1 0-.938h.938v.938zm0-1.875h-.938a1.406 1.406 0 1 0 0 2.812h.938v2.813h-1.44a3.281 3.281 0 0 0-6.495 0h-1.44V5.844h5.369l.302.468h-3.796a.469.469 0 0 0-.469.47v5.155a.47.47 0 0 0 .469.47h7.5v.937z"/>
    <path d="M22.5 13.344h-1.406a.469.469 0 1 0 0 .937H22.5a.469.469 0 1 0 0-.937zM12.656 16.156h3.75a.469.469 0 1 0 0-.937h-3.75a.469.469 0 1 0 0 .937zM16.406 16.625H15a.47.47 0 0 0 0 .938h1.406a.469.469 0 1 0 0-.938z"/>
</symbol><symbol id="vk" viewBox="0 0 15 9">
    <path fill-rule="evenodd" clip-rule="evenodd" d="M13.763 1.3c.092-.317 0-.55-.443-.55h-1.464c-.373 0-.544.201-.637.424 0 0-.745 1.854-1.8 3.06-.34.349-.495.46-.682.46-.093 0-.233-.111-.233-.429V1.3c0-.38-.102-.55-.412-.55H5.79c-.233 0-.372.176-.372.344 0 .36.527.444.581 1.459v2.204c0 .483-.085.57-.271.57-.497 0-1.704-1.863-2.42-3.995-.14-.415-.28-.582-.654-.582H1.19c-.418 0-.502.201-.502.424 0 .395.497 2.362 2.312 4.962 1.21 1.776 2.913 2.739 4.465 2.739.93 0 1.045-.214 1.045-.582V6.95c0-.428.088-.513.383-.513.218 0 .59.11 1.459.967.992 1.015 1.155 1.47 1.714 1.47h1.464c.418 0 .628-.214.507-.636-.133-.42-.606-1.03-1.235-1.754-.341-.412-.853-.856-1.009-1.078-.216-.285-.155-.412 0-.666 0 0 1.785-2.569 1.97-3.44z"/>
</symbol><symbol id="vk2" viewBox="0 0 32 32">
    <path fill-rule="evenodd" clip-rule="evenodd" d="M29.358 9.151c.193-.663 0-1.151-.928-1.151h-3.062c-.78 0-1.139.421-1.334.886 0 0-1.557 3.881-3.763 6.402-.714.731-1.038.963-1.428.963-.195 0-.488-.232-.488-.896V9.15c0-.796-.215-1.151-.863-1.151h-4.816c-.486 0-.78.37-.78.72 0 .754 1.104.929 1.217 3.052v4.611c0 1.012-.178 1.195-.568 1.195-1.038 0-3.564-3.899-5.063-8.36C7.192 8.35 6.898 8 6.115 8H3.05C2.175 8 2 8.421 2 8.886c0 .829 1.038 4.943 4.836 10.384C9.367 22.985 12.93 25 16.178 25c1.947 0 2.188-.447 2.188-1.218v-2.809c0-.895.184-1.073.801-1.073.455 0 1.233.233 3.05 2.024C24.296 24.048 24.638 25 25.806 25h3.063c.875 0 1.313-.447 1.061-1.33-.277-.88-1.269-2.156-2.584-3.67-.714-.863-1.785-1.791-2.11-2.257-.454-.596-.325-.862 0-1.392 0 0 3.733-5.375 4.122-7.2z"/>
</symbol><symbol id="whatsapp" viewBox="0 0 16 16">
    <path d="M.003 16l1.082-3.974a8 8 0 1 1 2.891 2.89L.003 16zm5.11-11.754a.769.769 0 0 0-.297.08c-.087.05-.166.111-.235.183-.096.09-.15.169-.209.245a2.183 2.183 0 0 0-.452 1.342c.002.392.104.774.264 1.13.327.722.866 1.486 1.577 2.194.171.17.338.342.518.5a7.558 7.558 0 0 0 3.072 1.638l.455.07c.148.007.296-.004.445-.011.233-.012.46-.075.667-.185.104-.054.207-.113.306-.176 0 0 .034-.022.1-.072.108-.08.174-.137.264-.23a.918.918 0 0 0 .168-.242c.062-.13.125-.38.15-.586.02-.159.014-.245.012-.299-.004-.085-.075-.174-.152-.212l-.466-.209s-.696-.303-1.12-.496a.399.399 0 0 0-.142-.033.386.386 0 0 0-.303.101v-.001c-.004 0-.057.045-.636.746a.28.28 0 0 1-.294.104 1.132 1.132 0 0 1-.153-.053c-.1-.041-.134-.057-.202-.087l-.004-.001c-.457-.2-.881-.47-1.256-.8-.1-.088-.194-.184-.29-.277a5.037 5.037 0 0 1-.816-1.015l-.047-.076a.737.737 0 0 1-.082-.164c-.03-.117.049-.212.049-.212s.194-.212.285-.328c.075-.095.145-.195.21-.298.095-.152.124-.308.075-.429a66.606 66.606 0 0 0-.695-1.633c-.047-.107-.187-.184-.314-.199-.043-.005-.087-.01-.13-.013a2.707 2.707 0 0 0-.322.004z"/>
</symbol><symbol id="yt" viewBox="0 0 30 24">
    <path d="M29.803 5.718c0-2.637-1.939-4.758-4.335-4.758C22.22.81 18.91.75 15.528.75h-1.055c-3.375 0-6.691.059-9.937.21C2.145.96.206 3.095.206 5.73A87.164 87.164 0 0 0 0 11.988a90.73 90.73 0 0 0 .2 6.263c0 2.637 1.939 4.776 4.33 4.776 3.41.158 6.908.228 10.465.222 3.562.012 7.05-.062 10.464-.222 2.397 0 4.336-2.139 4.336-4.776a89.6 89.6 0 0 0 .2-6.27 85.19 85.19 0 0 0-.192-6.263zM12.13 17.736V6.222l8.496 5.754-8.496 5.76z"/>
</symbol><symbol id="yt2" viewBox="0 0 32 32">
    <path d="M29.414 9.981a3.317 3.317 0 0 0-.894-1.507 3.542 3.542 0 0 0-1.56-.88c-2.191-.588-10.968-.588-10.968-.588a87.871 87.871 0 0 0-10.954.558 3.67 3.67 0 0 0-1.56.902A3.448 3.448 0 0 0 2.57 9.98 35.105 35.105 0 0 0 2 16.5a35.042 35.042 0 0 0 .57 6.52c.16.569.471 1.087.904 1.506.433.419.972.722 1.564.882 2.22.586 10.954.586 10.954.586a88.078 88.078 0 0 0 10.967-.558 3.541 3.541 0 0 0 1.561-.88 3.31 3.31 0 0 0 .893-1.507 34.25 34.25 0 0 0 .584-6.522 32.076 32.076 0 0 0-.583-6.547v.001zM13.2 20.564v-8.126l7.303 4.063-7.303 4.063z"/>
</symbol></svg>