<svg width="24" height="24" viewBox="0 0 24 24" fill="none" xmlns="http://www.w3.org/2000/svg">
    <circle cx="12" cy="12" r="11.5" fill="#fff" stroke="#010101"/>
    <path fill-rule="evenodd" clip-rule="evenodd" d="M9.123 6.528c-.227-.502-.465-.512-.68-.521C8.266 6 8.065 6 7.863 6a1.11 1.11 0 0 0-.805.377C6.78 6.68 6 7.41 6 8.893c0 1.483 1.083 2.917 1.234 3.119.15.2 2.09 3.343 5.162 4.552 2.552 1.005 3.072.805 3.626.755.554-.05 1.788-.73 2.04-1.434.251-.704.251-1.308.176-1.434-.076-.126-.277-.2-.58-.352-.302-.15-1.787-.88-2.064-.98-.277-.101-.479-.152-.68.15-.202.302-.78.981-.957 1.182-.176.202-.352.227-.655.076-.302-.151-1.275-.47-2.43-1.497-.898-.8-1.504-1.787-1.68-2.088-.177-.302-.02-.465.132-.616.136-.135.302-.352.453-.528.151-.176.202-.302.302-.503.1-.201.05-.377-.025-.528-.075-.15-.663-1.643-.931-2.239z" fill="#010101"/>
</svg>
