<svg width="18" height="18" viewBox="0 0 18 18" fill="none" xmlns="http://www.w3.org/2000/svg">
    <path fill-rule="evenodd" clip-rule="evenodd" d="M9 18A9 9 0 1 0 9 0a9 9 0 0 0 0 18zM6.332 4.505c.161.007.34.014.51.391.116.258.312.739.467 1.122.115.28.208.51.231.557.057.113.095.245.02.396a8.588 8.588 0 0 0-.032.064 1.295 1.295 0 0 1-.195.314l-.117.14a3.8 3.8 0 0 1-.223.256c-.114.113-.232.235-.1.461.133.227.588.967 1.261 1.567a5.857 5.857 0 0 0 1.672 1.055c.063.027.114.049.15.067.227.113.36.095.492-.056s.566-.66.717-.887c.151-.226.303-.189.51-.113.208.075 1.322.622 1.549.736l.124.06c.158.076.265.127.31.204.057.094.057.547-.132 1.075-.189.528-1.114 1.037-1.53 1.075l-.12.013c-.384.045-.87.102-2.6-.579-2.129-.838-3.532-2.915-3.822-3.344-.024-.035-.04-.059-.049-.07l-.002-.004C5.3 8.841 4.5 7.774 4.5 6.67c0-1.041.513-1.587.749-1.839l.044-.047a.833.833 0 0 1 .605-.283h.024c.143 0 .285 0 .41.005z" fill="#B7B9BF"/>
</svg>
