<svg width="16" height="16" viewBox="0 0 16 16" fill="none" xmlns="http://www.w3.org/2000/svg">
    <path d="M.003 16l1.082-3.974a8 8 0 1 1 2.891 2.89L.003 16zm5.11-11.754a.769.769 0 0 0-.297.08c-.087.05-.166.111-.235.183-.096.09-.15.169-.209.245a2.183 2.183 0 0 0-.452 1.342c.002.392.104.774.264 1.13.327.722.866 1.486 1.577 2.194.171.17.338.342.518.5a7.558 7.558 0 0 0 3.072 1.638l.455.07c.148.007.296-.004.445-.011.233-.012.46-.075.667-.185.104-.054.207-.113.306-.176 0 0 .034-.022.1-.072.108-.08.174-.137.264-.23a.918.918 0 0 0 .168-.242c.062-.13.125-.38.15-.586.02-.159.014-.245.012-.299-.004-.085-.075-.174-.152-.212l-.466-.209s-.696-.303-1.12-.496a.399.399 0 0 0-.142-.033.386.386 0 0 0-.303.101v-.001c-.004 0-.057.045-.636.746a.28.28 0 0 1-.294.104 1.132 1.132 0 0 1-.153-.053c-.1-.041-.134-.057-.202-.087l-.004-.001c-.457-.2-.881-.47-1.256-.8-.1-.088-.194-.184-.29-.277a5.037 5.037 0 0 1-.816-1.015l-.047-.076a.737.737 0 0 1-.082-.164c-.03-.117.049-.212.049-.212s.194-.212.285-.328c.075-.095.145-.195.21-.298.095-.152.124-.308.075-.429a66.606 66.606 0 0 0-.695-1.633c-.047-.107-.187-.184-.314-.199-.043-.005-.087-.01-.13-.013a2.707 2.707 0 0 0-.322.004z" fill="#FFF"/>
</svg>
