<svg width="24" height="24" viewBox="0 0 24 24" fill="none" xmlns="http://www.w3.org/2000/svg">
    <path fill-rule="evenodd" clip-rule="evenodd" d="M1.695 17.837L0 24l6.335-1.654a11.985 11.985 0 0 0 5.71 1.448h.005c6.586 0 11.947-5.335 11.95-11.892a11.794 11.794 0 0 0-3.497-8.414A11.903 11.903 0 0 0 12.05 0C5.463 0 .103 5.335.1 11.892c0 2.096.55 4.142 1.595 5.945z" fill="url(#a)"/>
    <path fill-rule="evenodd" clip-rule="evenodd" d="M9.278 6.557c-.222-.53-.455-.54-.665-.55C8.441 6 8.244 6 8.047 6c-.197 0-.516.08-.787.398-.27.319-1.033 1.089-1.033 2.655 0 1.567 1.058 3.08 1.205 3.293.148.212 2.042 3.529 5.044 4.805 2.494 1.06 3.001.85 3.543.796.54-.053 1.746-.77 1.992-1.513.246-.743.246-1.38.173-1.513-.074-.133-.271-.213-.567-.372-.295-.16-1.746-.93-2.017-1.036-.27-.106-.467-.159-.664.16-.197.318-.762 1.035-.935 1.248-.172.212-.344.239-.64.08-.295-.16-1.246-.496-2.374-1.58-.878-.844-1.47-1.886-1.642-2.205-.173-.318-.019-.49.13-.65.132-.142.294-.371.442-.557.148-.186.197-.319.295-.53.099-.213.05-.4-.024-.558-.074-.16-.648-1.734-.91-2.364z" fill="#fff"/>
    <defs>
        <linearGradient id="a" x1="11.747" y1="1.443" x2="11.869" y2="21.989" gradientUnits="userSpaceOnUse">
            <stop stop-color="#57D163"/>
            <stop offset="1" stop-color="#23B33A"/>
        </linearGradient>
    </defs>
</svg>
