<svg width="70" height="70" viewBox="0 0 70 70" fill="none" xmlns="http://www.w3.org/2000/svg">
    <path d="M48.398 35.068L28.301 48.507V21.63l20.097 13.438z" fill="#fff"/>
    <path d="M69.541 20.342c0-6.152-4.525-11.101-10.117-11.101-7.574-.354-15.299-.491-23.193-.491h-2.46c-7.876 0-15.614.137-23.188.492C5.005 9.242.479 14.22.479 20.372a203.381 203.381 0 0 0-.478 14.6c-.014 4.867.141 9.738.465 14.614 0 6.153 4.525 11.143 10.103 11.143 7.957.37 16.12.533 24.418.52 8.313.027 16.452-.146 24.418-.52 5.592 0 10.117-4.99 10.117-11.142.328-4.881.479-9.748.465-14.63.031-4.867-.117-9.738-.445-14.615zm-41.24 28.041V21.518l19.825 13.426-19.824 13.44z" fill="#FF2F2F"/>
</svg>
