<svg width="16" height="14" viewBox="0 0 16 14" fill="none" xmlns="http://www.w3.org/2000/svg">
<g clip-path="url(#clip0_19_686)">
<path d="M6.12703 12.974C6.0513 13.05 5.96131 13.1104 5.8622 13.1515C5.7631 13.1927 5.65684 13.2139 5.54953 13.2139C5.44221 13.2139 5.33595 13.1927 5.23685 13.1515C5.13775 13.1104 5.04775 13.05 4.97203 12.974L0.359027 8.36099C0.245188 8.24723 0.15488 8.11215 0.0932662 7.96347C0.0316521 7.8148 -6.10352e-05 7.65543 -6.10352e-05 7.49449C-6.10352e-05 7.33355 0.0316521 7.17419 0.0932662 7.02551C0.15488 6.87684 0.245188 6.74176 0.359027 6.62799L0.937027 6.05099C1.16674 5.82139 1.47824 5.69241 1.80303 5.69241C2.12782 5.69241 2.43931 5.82139 2.66903 6.05099L5.54903 8.93099L13.331 1.14899C13.5607 0.919388 13.8722 0.790405 14.197 0.790405C14.5218 0.790405 14.8333 0.919388 15.063 1.14899L15.641 1.72699C15.8706 1.95671 15.9996 2.2682 15.9996 2.59299C15.9996 2.91778 15.8706 3.22928 15.641 3.45899L6.12703 12.974Z" fill="#FF2F2F"/>
</g>
<defs>
<clipPath id="clip0_19_686">
<rect width="16" height="14" fill="white"/>
</clipPath>
</defs>
</svg>
