<svg width="35" height="35" viewBox="0 0 35 35" fill="none" xmlns="http://www.w3.org/2000/svg">
<path d="M9.84375 2.91797C8.97351 2.91797 8.13891 3.26367 7.52356 3.87902C6.9082 4.49438 6.5625 5.32898 6.5625 6.19922V30.2617C6.5625 30.8655 7.0525 31.3555 7.65625 31.3555H10.9375V25.1576C10.9375 24.8675 11.0527 24.5893 11.2579 24.3842C11.463 24.179 11.7412 24.0638 12.0312 24.0638H22.9687C23.2588 24.0638 23.537 24.179 23.7421 24.3842C23.9473 24.5893 24.0625 24.8675 24.0625 25.1576V31.3555H27.3437C27.6338 31.3555 27.912 31.2402 28.1171 31.0351C28.3223 30.83 28.4375 30.5518 28.4375 30.2617V17.1367C28.4375 16.2665 28.0918 15.4319 27.4764 14.8165C26.8611 14.2012 26.0265 13.8555 25.1562 13.8555H24.0625V6.19922C24.0625 5.32898 23.7168 4.49438 23.1014 3.87902C22.4861 3.26367 21.6515 2.91797 20.7812 2.91797H9.84375ZM10.9375 9.48047C10.9375 9.09369 11.0911 8.72276 11.3646 8.44927C11.6381 8.17578 12.0091 8.02214 12.3958 8.02214C12.7826 8.02214 13.1535 8.17578 13.427 8.44927C13.7005 8.72276 13.8542 9.09369 13.8542 9.48047C13.8542 9.86724 13.7005 10.2382 13.427 10.5117C13.1535 10.7852 12.7826 10.9388 12.3958 10.9388C12.0091 10.9388 11.6381 10.7852 11.3646 10.5117C11.0911 10.2382 10.9375 9.86724 10.9375 9.48047ZM12.3958 18.2305C12.7826 18.2305 13.1535 18.3841 13.427 18.6576C13.7005 18.9311 13.8542 19.302 13.8542 19.6888C13.8542 20.0756 13.7005 20.4465 13.427 20.72C13.1535 20.9935 12.7826 21.1471 12.3958 21.1471C12.0091 21.1471 11.6381 20.9935 11.3646 20.72C11.0911 20.4465 10.9375 20.0756 10.9375 19.6888C10.9375 19.302 11.0911 18.9311 11.3646 18.6576C11.6381 18.3841 12.0091 18.2305 12.3958 18.2305V18.2305ZM10.9375 14.5846C10.9375 14.1979 11.0911 13.8269 11.3646 13.5534C11.6381 13.2799 12.0091 13.1263 12.3958 13.1263C12.7826 13.1263 13.1535 13.2799 13.427 13.5534C13.7005 13.8269 13.8542 14.1979 13.8542 14.5846C13.8542 14.9714 13.7005 15.3423 13.427 15.6158C13.1535 15.8893 12.7826 16.043 12.3958 16.043C12.0091 16.043 11.6381 15.8893 11.3646 15.6158C11.0911 15.3423 10.9375 14.9714 10.9375 14.5846ZM17.5 8.02214C17.8868 8.02214 18.2577 8.17578 18.5312 8.44927C18.8047 8.72276 18.9583 9.09369 18.9583 9.48047C18.9583 9.86724 18.8047 10.2382 18.5312 10.5117C18.2577 10.7852 17.8868 10.9388 17.5 10.9388C17.1132 10.9388 16.7423 10.7852 16.4688 10.5117C16.1953 10.2382 16.0417 9.86724 16.0417 9.48047C16.0417 9.09369 16.1953 8.72276 16.4688 8.44927C16.7423 8.17578 17.1132 8.02214 17.5 8.02214V8.02214ZM16.0417 19.6888C16.0417 19.302 16.1953 18.9311 16.4688 18.6576C16.7423 18.3841 17.1132 18.2305 17.5 18.2305C17.8868 18.2305 18.2577 18.3841 18.5312 18.6576C18.8047 18.9311 18.9583 19.302 18.9583 19.6888C18.9583 20.0756 18.8047 20.4465 18.5312 20.72C18.2577 20.9935 17.8868 21.1471 17.5 21.1471C17.1132 21.1471 16.7423 20.9935 16.4688 20.72C16.1953 20.4465 16.0417 20.0756 16.0417 19.6888ZM22.6042 18.2305C22.9909 18.2305 23.3619 18.3841 23.6354 18.6576C23.9089 18.9311 24.0625 19.302 24.0625 19.6888C24.0625 20.0756 23.9089 20.4465 23.6354 20.72C23.3619 20.9935 22.9909 21.1471 22.6042 21.1471C22.2174 21.1471 21.8465 20.9935 21.573 20.72C21.2995 20.4465 21.1458 20.0756 21.1458 19.6888C21.1458 19.302 21.2995 18.9311 21.573 18.6576C21.8465 18.3841 22.2174 18.2305 22.6042 18.2305V18.2305ZM16.0417 14.5846C16.0417 14.1979 16.1953 13.8269 16.4688 13.5534C16.7423 13.2799 17.1132 13.1263 17.5 13.1263C17.8868 13.1263 18.2577 13.2799 18.5312 13.5534C18.8047 13.8269 18.9583 14.1979 18.9583 14.5846C18.9583 14.9714 18.8047 15.3423 18.5312 15.6158C18.2577 15.8893 17.8868 16.043 17.5 16.043C17.1132 16.043 16.7423 15.8893 16.4688 15.6158C16.1953 15.3423 16.0417 14.9714 16.0417 14.5846Z" fill="#FF2F2F"/>
<path d="M21.875 31.3581V26.2539H18.5938V31.3581H21.875Z" fill="#FF2F2F"/>
<path d="M16.4062 31.3581V26.2539H13.125V31.3581H16.4062Z" fill="#FF2F2F"/>
</svg>
