<svg width="35" height="35" viewBox="0 0 35 35" fill="none" xmlns="http://www.w3.org/2000/svg">
<path d="M28.8748 8.75L17.9373 4.375L5.68733 8.75C3.93733 24.15 13.1248 30.0417 17.9373 31.0625C29.4873 26.8625 30.0415 14.4375 28.8748 8.75Z" fill="#FF2F2F"/>
<path d="M17.5 2.81641L30.625 7.73828V14.5822C30.625 20.5877 28.2625 24.9554 25.4698 27.8152C24.2315 29.093 22.7963 30.1639 21.2188 30.987C19.8873 31.6695 18.5558 32.0822 17.5 32.0822C16.4442 32.0822 15.1127 31.6695 13.7812 30.9885C12.2037 30.1649 10.7684 29.0935 9.53021 27.8152C6.73604 24.9554 4.375 20.5877 4.375 14.5822V7.73828L17.5 2.81641ZM7.29167 9.75953V14.5822C7.29167 19.7579 9.30417 23.411 11.6156 25.7764C12.6339 26.8289 13.814 27.7117 15.1113 28.3912C16.2415 28.9702 17.0975 29.1656 17.5 29.1656C17.9025 29.1656 18.7585 28.9702 19.8888 28.3927C21.1861 27.7127 22.3662 26.8294 23.3844 25.7764C25.6944 23.411 27.7083 19.7593 27.7083 14.5822V9.75953L17.5 5.93141L7.29167 9.75953Z" fill="#FF2F2F"/>
<path d="M22.9057 13.552C23.1791 13.8255 23.3327 14.1963 23.3327 14.583C23.3327 14.9697 23.1791 15.3406 22.9057 15.6141L17.0724 21.4474C16.7989 21.7208 16.4281 21.8744 16.0414 21.8744C15.6547 21.8744 15.2838 21.7208 15.0103 21.4474L12.0936 18.5307C11.9544 18.3962 11.8433 18.2353 11.7668 18.0574C11.6904 17.8794 11.6502 17.6881 11.6485 17.4944C11.6468 17.3008 11.6837 17.1088 11.757 16.9295C11.8304 16.7503 11.9386 16.5875 12.0756 16.4506C12.2125 16.3136 12.3753 16.2054 12.5545 16.132C12.7338 16.0587 12.9258 16.0218 13.1194 16.0235C13.3131 16.0252 13.5044 16.0654 13.6824 16.1418C13.8603 16.2183 14.0212 16.3294 14.1557 16.4686L16.0414 18.3543L20.8436 13.552C21.1171 13.2786 21.488 13.125 21.8747 13.125C22.2614 13.125 22.6323 13.2786 22.9057 13.552Z" fill="#010101"/>
</svg>
