<svg width="35" height="35" viewBox="0 0 35 35" fill="none" xmlns="http://www.w3.org/2000/svg">
<path d="M28 10.5003H6.125V9.62534L25.375 8.08534V9.62534H28V7.00034C28 5.07534 26.4407 3.72434 24.5367 3.99559L6.965 6.50509C5.05925 6.77809 3.5 8.57534 3.5 10.5003V28.0003C3.5 28.9286 3.86875 29.8188 4.52513 30.4752C5.1815 31.1316 6.07174 31.5003 7 31.5003H28C28.9283 31.5003 29.8185 31.1316 30.4749 30.4752C31.1313 29.8188 31.5 28.9286 31.5 28.0003V14.0003C31.5 13.0721 31.1313 12.1818 30.4749 11.5255C29.8185 10.8691 28.9283 10.5003 28 10.5003V10.5003ZM25.375 22.7608C25.0302 22.7607 24.6887 22.6927 24.3702 22.5606C24.0516 22.4286 23.7622 22.235 23.5185 21.9911C23.2747 21.7472 23.0814 21.4577 22.9495 21.139C22.8177 20.8204 22.7499 20.4789 22.75 20.1341C22.7501 19.7893 22.8181 19.4478 22.9502 19.1293C23.0823 18.8107 23.2758 18.5213 23.5197 18.2776C23.7636 18.0338 24.0532 17.8405 24.3718 17.7086C24.6904 17.5768 25.0319 17.509 25.3768 17.5091C26.0732 17.5093 26.741 17.7862 27.2333 18.2788C27.7256 18.7714 28.002 19.4394 28.0017 20.1358C28.0015 20.8323 27.7246 21.5001 27.232 21.9924C26.7394 22.4846 26.0714 22.7611 25.375 22.7608Z" fill="#FF2F2F"/>
</svg>
