<svg width="35" height="35" viewBox="0 0 35 35" fill="none" xmlns="http://www.w3.org/2000/svg">
<path d="M17.4906 2.91406C9.44062 2.91406 2.92188 9.4474 2.92188 17.4974C2.92188 25.5474 9.44062 32.0807 17.4906 32.0807C25.5552 32.0807 32.0885 25.5474 32.0885 17.4974C32.0885 9.4474 25.5552 2.91406 17.4906 2.91406ZM23.3385 23.3307C23.2036 23.4659 23.0434 23.5732 22.867 23.6464C22.6905 23.7195 22.5014 23.7572 22.3104 23.7572C22.1194 23.7572 21.9303 23.7195 21.7539 23.6464C21.5775 23.5732 21.4172 23.4659 21.2823 23.3307L16.4844 18.5328C16.3466 18.3977 16.237 18.2367 16.1619 18.0589C16.0868 17.8812 16.0477 17.6903 16.0469 17.4974V11.6641C16.0469 10.862 16.7031 10.2057 17.5052 10.2057C18.3073 10.2057 18.9635 10.862 18.9635 11.6641V16.8995L23.3385 21.2745C23.9073 21.8432 23.9073 22.762 23.3385 23.3307Z" fill="#FF2F2F"/>
</svg>
