<svg width="68" height="30" viewBox="0 0 68 30" fill="none" xmlns="http://www.w3.org/2000/svg">
    <g clip-path="url(#a)">
        <path d="M28.973 15c0-1.841-.337-3.597-.923-5.226-.155 5.361-5.407 9.511-8.491 12.258h7.719A15.336 15.336 0 0 0 28.973 15zm-5.58-11.804c-2.444-1.974-5.509-3.16-8.846-3.16C6.58.035.121 6.735.121 15S6.58 29.964 14.547 29.964c3.648 0 6.97-1.416 9.51-3.733H13.615l-.032-3.182c6.293-5.675 10.15-9.513 10.15-13.22 0-1.378-.505-3.116-2.782-3.116-1.803 0-3.542 1.083-3.226 5.61h-3.667c-.918-5.249 1.833-9.415 7.082-9.415.814 0 1.567.1 2.253.288z" fill="#A3C626"/>
        <path d="M42.352 10.377h3.412c.117-2.693-.758-6.959-6.386-6.959-4.142 0-7.146 2.572-7.146 7.927 0 .726.03 4.477.03 6.807 0 5.81 3.879 7.08 7.145 7.08 1.954 0 4.783-.454 6.095-1.937v-9.258h-6.416v3.359h2.858v4.084c-2.158.756-6.095 1.059-6.095-4.084v-6.051c0-3.6 1.604-4.84 3.383-4.84 1.837 0 3.12.967 3.12 3.872zm25.381 8.985c.146-8.29-9.011-5.537-8.925-10.165.03-1.634 1.05-2.693 2.713-2.693 1.78 0 2.828 1.09 2.8 3.934h3.353c.088-2.573-.495-6.96-6.036-6.96-3.442 0-6.27 1.756-6.33 5.658-.145 7.957 9.071 5.355 8.925 10.166-.058 1.966-1.43 2.843-2.975 2.843-1.808 0-3.266-1.089-2.974-4.356H54.9c-.379 4.326 1.459 7.412 6.33 7.412 4.111 0 6.444-2.36 6.503-5.84zm-15.407 5.567h-3.441V3.75h3.44v21.177zm0 0h-3.441V3.75h3.44v21.177z" fill="#434242"/>
    </g>
    <defs>
        <clipPath id="a">
            <path fill="#fff" transform="translate(.121)" d="M0 0h67.758v30H0z"/>
        </clipPath>
    </defs>
</svg>
