<svg width="84" height="29" viewBox="0 0 84 29" fill="none" xmlns="http://www.w3.org/2000/svg">
    <g clip-path="url(#a)">
        <path d="M10.573.367h.742a9.905 9.905 0 0 1 6.926 3.059c-.671.717-1.357 1.404-2.015 2.121-1.021-.965-2.252-1.712-3.596-1.975-1.987-.44-4.127-.044-5.792 1.141-1.82 1.244-3.05 3.351-3.317 5.605-.293 2.224.308 4.565 1.693 6.292 1.33 1.683 3.359 2.736 5.457 2.81 1.96.117 4.002-.513 5.43-1.947 1.119-1.01 1.637-2.546 1.804-4.038-2.322 0-4.645.014-6.968 0V10.42h9.78c.505 3.234-.223 6.878-2.574 9.19-1.567 1.639-3.736 2.605-5.946 2.795-2.141.22-4.352-.205-6.255-1.288-2.28-1.273-4.1-3.424-4.995-5.956-.84-2.326-.854-4.96-.07-7.302a11.106 11.106 0 0 1 3.848-5.34C6.418 1.215 8.475.498 10.573.366z" fill="#3780FF"/>
        <path d="M66.682 1.125h2.994v20.896c-.993 0-2 .015-2.994-.014.014-6.951 0-13.917 0-20.882z" fill="#38B137"/>
        <path d="M27.378 8.372c1.847-.366 3.848.044 5.373 1.2 1.385 1.024 2.35 2.634 2.645 4.39.377 2.034-.098 4.258-1.358 5.868-1.357 1.8-3.582 2.766-5.75 2.62-1.988-.118-3.918-1.157-5.094-2.854-1.329-1.873-1.65-4.449-.923-6.644.727-2.356 2.784-4.156 5.107-4.58zm.42 2.78a3.747 3.747 0 0 0-1.96 1.303c-1.357 1.697-1.273 4.463.225 6.043.853.907 2.14 1.332 3.33 1.083 1.105-.205 2.07-.98 2.602-2.005.924-1.741.658-4.14-.755-5.502-.91-.878-2.239-1.244-3.442-.922z" fill="#FA3913"/>
        <path d="M42.21 8.37c2.112-.425 4.421.19 6.002 1.74 2.575 2.415 2.855 6.937.658 9.717a6.702 6.702 0 0 1-5.611 2.62 6.674 6.674 0 0 1-5.233-2.854c-1.358-1.917-1.651-4.551-.882-6.79.77-2.283 2.785-4.024 5.066-4.434zm.42 2.78a3.808 3.808 0 0 0-1.96 1.287c-1.343 1.668-1.287 4.39.154 5.985.854.951 2.183 1.42 3.414 1.156 1.092-.22 2.071-.98 2.603-2.005.91-1.755.643-4.155-.784-5.516-.91-.878-2.238-1.23-3.428-.908z" fill="#FCBD06"/>
        <path d="M54.788 9.218c1.61-1.053 3.75-1.346 5.485-.439.546.25.994.673 1.428 1.098.014-.395 0-.805.014-1.215.937.015 1.874 0 2.826.015v12.906c-.014 1.947-.49 4.01-1.833 5.43-1.47 1.565-3.722 2.048-5.75 1.726-2.17-.337-4.059-1.99-4.898-4.083.84-.424 1.721-.76 2.588-1.156.49 1.2 1.484 2.225 2.729 2.459 1.245.234 2.686-.088 3.498-1.17.868-1.113.868-2.635.826-3.996-.644.659-1.386 1.244-2.281 1.463-1.945.571-4.086-.131-5.583-1.507-1.511-1.375-2.407-3.497-2.323-5.604.042-2.385 1.33-4.683 3.274-5.927zm2.897 1.873c-.854.147-1.651.644-2.197 1.332-1.315 1.639-1.315 4.258.014 5.868.756.951 1.973 1.478 3.148 1.346 1.106-.117 2.127-.849 2.673-1.858.923-1.712.77-4.039-.476-5.532-.77-.921-2-1.375-3.162-1.156z" fill="#3780FF"/>
        <path d="M73.273 9.966c1.679-1.639 4.267-2.195 6.422-1.332 2.043.805 3.344 2.84 4.002 4.932-3.036 1.317-6.059 2.62-9.095 3.936.42.834 1.063 1.595 1.931 1.902 1.217.454 2.673.293 3.694-.556.406-.322.728-.746 1.035-1.156.77.542 1.54 1.069 2.31 1.61-1.092 1.712-2.925 2.912-4.898 3.102-2.183.278-4.506-.6-5.919-2.385-2.322-2.81-2.099-7.521.518-10.053zm1.497 2.707c-.476.717-.672 1.595-.658 2.459 2.03-.878 4.058-1.756 6.087-2.65-.336-.819-1.147-1.316-1.973-1.448-1.33-.249-2.714.498-3.456 1.64z" fill="#FA3913"/>
    </g>
    <defs>
        <clipPath id="a">
            <path fill="#fff" transform="translate(.303 .363)" d="M0 0h83.394v28.467H0z"/>
        </clipPath>
    </defs>
</svg>
