<svg width="66" height="34" viewBox="0 0 66 34" fill="none" xmlns="http://www.w3.org/2000/svg">
    <path fill-rule="evenodd" clip-rule="evenodd" d="M64.322 0a18.525 18.525 0 0 0-14.319 6.735 14.485 14.485 0 0 0-5.21-2.414 14.68 14.68 0 0 0-4.855-.336 14.512 14.512 0 0 1 10.632 6.34 18.09 18.09 0 0 1 1.18-2.071 18.386 18.386 0 0 1 5.179-5.178A18.49 18.49 0 0 1 65.755.054 19 19 0 0 0 64.322 0" fill="#0F9AEF"/>
    <path fill-rule="evenodd" clip-rule="evenodd" d="M42.49 15.832v16.007h-1.435a1.44 1.44 0 0 1-1.43-1.369l-.005-14.638h-2.87v13.781c0 2.404 1.928 4.352 4.305 4.352h4.304V15.832h-2.87zm-8.63 4.352c0-2.404-1.926-4.352-4.303-4.352h-4.305v18.133h2.87v-7.933h1.434c.766 0 1.39.609 1.431 1.371l.004 6.562h2.87v-5.961a4.337 4.337 0 0 0-.389-1.81 4.387 4.387 0 0 0-1.11-1.49 4.388 4.388 0 0 0 1.11-1.49 4.339 4.339 0 0 0 .389-1.809v-1.221zm-3.152 3.1a1.464 1.464 0 0 1-1.11.501h-1.476V18.1h1.475a1.481 1.481 0 0 1 1.209.626c.34.47.567 1.287.567 2.218 0 .967-.243 1.81-.605 2.268l-.06.073zm-10.047 7.848h2.87v2.833h-2.87v-2.833zm-5.74-15.3h-2.869v18.133h6.887v-2.833h-4.017v-15.3zm-9.86 10.673L2.95 15.832H0l3.585 18.133h2.951l3.585-18.133h-2.95L5.06 26.505z" fill="#F97D41"/>
</svg>
