<svg width="86" height="27" viewBox="0 0 86 27" fill="none" xmlns="http://www.w3.org/2000/svg">
    <g clip-path="url(#a)">
        <path d="M82.215 23.023c1.692 0 2.89-.319 3.783-1.006v-3.118c-.916.663-2.02 1.08-3.572 1.08-2.608 0-3.688-2.111-3.688-5.45 0-3.511 1.315-5.303 3.712-5.303 1.41 0 2.796.515 3.524 1.006v-3.24c-.775-.442-2.114-.762-3.947-.762-4.676 0-7.096 3.511-7.096 8.421.024 5.377 2.397 8.372 7.284 8.372zM59.353 21.6v-3.118c-1.127.81-3.054 1.523-4.816 1.523-2.679 0-3.689-1.326-3.853-4.027h8.834v-2.013c0-5.622-2.373-7.734-6.015-7.734-4.464 0-6.579 3.56-6.579 8.446 0 5.622 2.655 8.347 7.307 8.347 2.326 0 4.042-.663 5.122-1.424zM25.825 6.525v6.383h-4.887V6.525h-3.665v16.18h3.665v-6.752h4.887v6.751h3.665V6.525h-3.665zM46.008 19.66h-1.621V6.525H33.72V7.9c0 3.953-.235 9.06-1.528 11.76h-1.175v6.727h3.384v-3.683h8.2v3.683h3.383V19.66h.024zm25.023 3.044h4.159l-5.874-8.715 5.169-7.464h-3.689l-5.17 7.464V6.525h-3.664v16.18h3.665V14.75l5.404 7.954zM53.409 9.226c1.81 0 2.373 1.571 2.373 3.609v.319h-5.098c.094-2.578.986-3.928 2.725-3.928zM40.721 19.66h-5.169c1.01-2.43 1.292-6.85 1.292-9.649v-.49h3.877V19.66z" fill="#010101"/>
        <path d="M14.218 22.705h-3.736V3.383H8.814c-3.055 0-4.652 1.596-4.652 3.977 0 2.7 1.104 3.953 3.383 5.549l1.88 1.326-5.404 8.47H.003l4.864-7.562C2.07 13.056.497 11.018.497 7.581.496 3.285 3.362.363 8.79.363h5.404v22.342h.024z" fill="#FC3F1D"/>
    </g>
    <defs>
        <clipPath id="a">
            <path fill="#fff" transform="translate(0 .363)" d="M0 0h86v26.024H0z"/>
        </clipPath>
    </defs>
</svg>
